<svg width="941" height="166" viewBox="0 0 941 166" fill="none" xmlns="http://www.w3.org/2000/svg">
<path d="M145.67 157.365C100.41 165.981 53.9728 166.414 8.56006 158.645C9.96106 150.5 13.9228 143.014 19.8699 137.275C37.5803 146.313 57.2606 150.804 77.1384 150.343C97.0162 149.882 116.467 144.484 133.74 134.635C137.368 138.878 140.362 143.624 142.63 148.725C143.874 151.519 144.891 154.408 145.67 157.365Z" fill="white"/>
<path d="M81.49 150.065C46.01 150.765 35.8801 146.065 30.0701 142.675C26.5168 140.559 23.1951 138.075 20.1599 135.265C20.1346 134.355 20.3908 133.46 20.8938 132.701C21.3968 131.942 22.1219 131.357 22.97 131.025C23.6531 130.812 24.3763 130.76 25.0828 130.875C25.7892 130.99 26.4594 131.267 27.04 131.685L131.97 129.135C132.958 129.461 133.796 130.132 134.33 131.025C134.685 131.634 134.881 132.321 134.9 133.025C133.123 135.645 131.023 138.03 128.65 140.125C123.21 144.925 114.92 149.395 81.49 150.065Z" fill="#666766" stroke="black" stroke-width="2.78" stroke-linecap="round" stroke-linejoin="round"/>
<path d="M128.4 132.455C126.297 134.671 123.948 136.64 121.4 138.325C113.84 143.225 105.76 143.905 89.5898 144.195C72.5898 144.505 64.0999 144.665 58.1499 143.815C58.1499 143.815 38.71 141.055 28.75 132.815C27.1709 131.483 25.7056 130.021 24.3699 128.445C21.9798 125.512 20.131 122.177 18.9099 118.595C33.2003 114.037 45.7801 105.267 55 93.4352C70.59 73.2752 70.5501 51.4353 70.3201 45.3053H104.21C113.9 27.3053 129.12 18.9354 139 22.6154C147.57 25.8054 150.39 37.3952 151.25 40.9352C156.43 62.2752 140.66 80.7054 138.12 83.5954C141.375 94.7266 140.993 106.606 137.03 117.505C135.24 123.041 132.299 128.136 128.4 132.455Z" fill="white"/>
<path d="M64.29 107.096C67.97 103.096 68.9899 98.9854 70.8599 90.6854C72.8599 81.5654 74.9801 65.8455 70.3101 45.2855L53.8999 46.3853C51.7373 42.4801 49.17 38.8133 46.24 35.4454C41.07 29.5054 35.8099 23.4455 27.6499 22.3155C24.327 21.8562 20.9421 22.2306 17.8001 23.4054C11.7501 25.7254 8.62987 30.4854 6.85987 33.2554C-1.83013 46.8854 2.95009 62.9554 3.58009 64.9754C5.14103 69.6377 7.34909 74.0577 10.1399 78.1055C11.475 80.0255 12.9385 81.8529 14.52 83.5755C13.4146 90.0923 13.4146 96.7487 14.52 103.265C16.4542 114.229 21.3745 124.447 28.74 132.795C30.0529 129.589 31.9027 126.63 34.21 124.045C43.83 113.385 55.87 116.186 64.29 107.096Z" fill="#666667"/>
<path d="M53.3497 46.9253C45.5497 27.9253 28.5599 18.9255 17.2499 22.8655C3.30989 27.6855 2.01984 50.6452 1.93984 52.3952C1.18984 69.4652 11.4198 81.3152 13.9398 84.1252C13.4298 88.4652 10.5499 116.645 29.2599 133.345C41.7099 144.465 56.9 144.395 79.58 144.285C102.26 144.175 116.58 144.115 127.71 133.345C145.1 116.495 139.43 87.7952 138.65 84.1252C141.89 80.5352 151.93 68.5254 151.77 51.3054C151.77 48.0854 151.21 27.4355 139.77 22.8655C130.02 18.9755 113.99 27.3455 104.77 45.8655C87.6575 43.9451 70.3654 44.3115 53.3497 46.9553V46.9253Z" stroke="black" stroke-width="3.28" stroke-linecap="round" stroke-linejoin="round"/>
<path d="M21.06 73.8954C24.65 74.3054 25.3998 68.1355 35.3798 59.5255C40.8398 54.8155 43.61 54.0854 44.04 50.9254C44.77 45.4754 37.48 40.4154 35.28 38.9254C31.99 36.6354 26.2 32.6155 21.06 34.5455C12.8 37.6455 13.3399 53.4855 13.4099 55.3255C13.6599 62.7555 16.46 73.3654 21.06 73.8954Z" fill="#F4C5C4"/>
<path d="M134.96 73.8954C131.74 74.2954 130.96 69.4954 121.55 60.8954C115.22 55.0754 112.36 54.2954 111.99 50.8954C111.4 45.4054 118.29 40.5754 120.74 38.8954C123.9 36.6854 129.74 32.5655 134.96 34.5155C143.22 37.6155 142.69 53.3955 142.62 55.2955C142.37 62.6655 139.64 73.3154 134.96 73.8954Z" fill="#F4C5C4"/>
<path d="M34.76 93.9952C39.84 89.6752 45.9301 88.3552 50.0701 90.7152C51.4312 91.5032 52.5619 92.6341 53.3499 93.9952" stroke="black" stroke-width="3.28" stroke-linecap="round" stroke-linejoin="round"/>
<path d="M102.58 91.7755C107.66 87.4555 113.75 86.1454 117.89 88.4954C119.251 89.2834 120.382 90.4143 121.17 91.7755" stroke="black" stroke-width="3.28" stroke-linecap="round" stroke-linejoin="round"/>
<path d="M58.2798 114.206C59.4893 114.206 60.47 113.225 60.47 112.016C60.47 110.806 59.4893 109.826 58.2798 109.826C57.0703 109.826 56.0898 110.806 56.0898 112.016C56.0898 113.225 57.0703 114.206 58.2798 114.206Z" fill="#060606"/>
<path d="M50.3499 119.666C51.4047 119.666 52.2598 118.81 52.2598 117.756C52.2598 116.701 51.4047 115.846 50.3499 115.846C49.295 115.846 48.4399 116.701 48.4399 117.756C48.4399 118.81 49.295 119.666 50.3499 119.666Z" fill="#060606"/>
<path d="M45.1499 115.295C46.3594 115.295 47.3398 114.315 47.3398 113.105C47.3398 111.896 46.3594 110.916 45.1499 110.916C43.9404 110.916 42.96 111.896 42.96 113.105C42.96 114.315 43.9404 115.295 45.1499 115.295Z" fill="#060606"/>
<path d="M99.8499 113.106C101.059 113.106 102.04 112.125 102.04 110.916C102.04 109.706 101.059 108.726 99.8499 108.726C98.6403 108.726 97.6599 109.706 97.6599 110.916C97.6599 112.125 98.6403 113.106 99.8499 113.106Z" fill="#060606"/>
<path d="M105.04 118.026C106.095 118.026 106.95 117.291 106.95 116.386C106.95 115.48 106.095 114.746 105.04 114.746C103.985 114.746 103.13 115.48 103.13 116.386C103.13 117.291 103.985 118.026 105.04 118.026Z" fill="#060606"/>
<path d="M108.87 112.555C109.925 112.555 110.78 111.821 110.78 110.916C110.78 110.01 109.925 109.275 108.87 109.275C107.815 109.275 106.96 110.01 106.96 110.916C106.96 111.821 107.815 112.555 108.87 112.555Z" fill="#060606"/>
<path d="M64.8398 97.7957C68.9805 95.9923 73.4485 95.0615 77.9648 95.0615C82.4812 95.0615 86.9491 95.9923 91.0898 97.7957" stroke="black" stroke-width="0.55" stroke-linecap="round" stroke-linejoin="round"/>
<path d="M65.3898 101.626C66.5098 98.6256 73.2299 98.7756 77.9699 98.8856C82.3099 98.9856 90.3198 99.1757 91.0898 102.176C91.7898 104.896 86.0898 108.446 85.6198 108.736C83.3053 110.122 80.6676 110.878 77.9699 110.926C76.4699 110.926 71.04 111.056 67.57 107.096C66.87 106.296 64.5998 103.696 65.3898 101.626Z" fill="black"/>
<path d="M77.4199 111.465C76.8577 115.552 74.9674 119.34 72.04 122.245C68.48 125.585 64.5 126.245 58.28 127.325C50.81 128.605 46.2 129.395 40.77 127.325C33.51 124.565 29.6799 118.555 28.1899 115.845" stroke="black" stroke-width="2.19" stroke-linecap="round" stroke-linejoin="round"/>
<path d="M78.5101 110.375C78.3044 113.45 79.0705 116.511 80.7 119.125C82.91 122.545 86.06 123.935 88.9 125.125C92.83 126.795 96.63 126.966 104.22 127.306C110.89 127.616 113.65 127.166 116.22 126.216C118.301 125.624 120.188 124.492 121.69 122.936C125.26 118.886 124.11 113.076 123.88 111.996" stroke="black" stroke-width="2.19" stroke-linecap="round" stroke-linejoin="round"/>
<path d="M108.77 58.4154C99.1847 62.6069 88.8063 64.6761 78.3464 64.4811C67.8865 64.2861 57.5924 61.8314 48.1699 57.2855C48.8199 56.1655 53.3099 48.2856 49.9199 40.0956C48.8609 37.5769 47.2233 35.3432 45.1399 33.5756C45.6801 31.0897 46.569 28.6926 47.78 26.4555C50.1543 22.2277 53.5644 18.673 57.6899 16.1254C68.3699 9.12539 80.6899 10.5456 82.9199 10.8356C102.37 13.4156 112.43 30.5956 113.71 32.8356C110.575 34.9214 108.155 37.9198 106.78 41.4254C103.54 49.8754 108.21 57.4954 108.77 58.4154Z" fill="#FFE401" stroke="black" stroke-width="3.26" stroke-linecap="round" stroke-linejoin="round"/>
<path d="M82.6499 22.2454L80.5601 26.2454L77.4299 21.6953L75.5898 4.84547C75.5958 4.33463 75.7024 3.82982 75.9033 3.36012C76.1043 2.89043 76.3958 2.46497 76.7612 2.10793C77.1266 1.75088 77.5587 1.46934 78.033 1.27931C78.5072 1.08928 79.0141 0.99435 79.5249 1.00026C80.0357 1.00617 80.5406 1.11279 81.0103 1.31374C81.4799 1.51469 81.9054 1.80625 82.2625 2.17165C82.6195 2.53705 82.901 2.96916 83.0911 3.44338C83.2811 3.91759 83.3758 4.42448 83.3699 4.93532L82.6499 22.2454Z" fill="#FFE401" stroke="black" stroke-width="1.48" stroke-linecap="round" stroke-linejoin="round"/>
<path d="M65.5502 22.0654C65.6302 24.2754 65.7201 26.1753 65.7901 27.6553C64.4801 25.7153 63.4601 24.0853 62.7901 22.9253C60.6598 19.478 59.0523 15.7342 58.0201 11.8154C57.7501 10.7054 57.3801 8.88529 58.5201 7.41529C58.9065 6.85093 59.4925 6.45436 60.16 6.30543C61.7 6.12543 62.9901 8.30535 63.5201 9.22535C65.3401 12.4054 65.3002 15.3054 65.5502 22.0654Z" fill="#FFE401" stroke="black" stroke-width="1.48" stroke-linecap="round" stroke-linejoin="round"/>
<path d="M97.1099 23.5458C95.9499 25.4358 94.96 27.0658 94.2 28.3358C94.2 25.9958 94.2601 24.0757 94.3201 22.7257C94.4599 18.6776 95.2047 14.6734 96.53 10.8458C96.92 9.76582 97.6199 8.03569 99.3899 7.45569C100.031 7.19446 100.749 7.19446 101.39 7.45569C102.77 8.16569 102.64 10.6957 102.57 11.7557C102.3 15.3957 100.66 17.7958 97.1099 23.5458Z" fill="#FFE401" stroke="black" stroke-width="1.48" stroke-linecap="round" stroke-linejoin="round"/>
<path d="M50.02 53.1655C58.9444 57.1184 68.5622 59.2684 78.3203 59.4915C88.0784 59.7146 97.7842 58.0065 106.88 54.4656" fill="#FFE401"/>
<path d="M50.02 53.1655C58.9444 57.1184 68.5622 59.2684 78.3203 59.4915C88.0784 59.7146 97.7842 58.0065 106.88 54.4656" stroke="black" stroke-width="1.48" stroke-linecap="round" stroke-linejoin="round"/>
<path d="M90.02 53.5156C86.8737 55.4026 83.2738 56.3992 79.605 56.3992C75.9362 56.3992 72.3363 55.4026 69.1899 53.5156V30.7856H90.02V53.5156Z" fill="white"/>
<path d="M81.43 39.6956C81.29 38.5956 80.8902 37.9855 79.8102 37.8855C78.1802 37.7455 77.5601 39.2857 77.2701 42.2757C77.7306 41.7601 78.3104 41.3656 78.9591 41.1268C79.6077 40.8879 80.3053 40.8118 80.9901 40.9056C84.1301 41.1756 86.2 43.3656 85.86 47.2056C85.52 51.0456 82.93 53.2057 78.93 52.8157C73.35 52.3257 72.3402 48.2255 72.8102 42.8955C73.3802 36.3855 75.63 33.5156 80.44 33.8956C84.59 34.2556 86.0501 37.2057 86.0001 40.0657L81.43 39.6956ZM77.2701 46.3855C77.2141 46.6578 77.2204 46.9393 77.2887 47.2088C77.357 47.4782 77.4854 47.7288 77.6644 47.9414C77.8434 48.1541 78.0683 48.3235 78.3221 48.4368C78.576 48.5501 78.8522 48.6045 79.13 48.5957C79.3926 48.6418 79.6623 48.6288 79.9193 48.5579C80.1763 48.487 80.4144 48.3597 80.6163 48.1856C80.8182 48.0114 80.9789 47.7947 81.0868 47.5508C81.1946 47.307 81.2471 47.0422 81.2401 46.7757C81.2885 46.5131 81.2786 46.2432 81.211 45.9849C81.1434 45.7266 81.0198 45.4862 80.849 45.281C80.6782 45.0759 80.4643 44.9109 80.2225 44.7976C79.9808 44.6844 79.717 44.6255 79.4501 44.6255C79.1882 44.5762 78.9189 44.5844 78.6605 44.6495C78.4021 44.7145 78.161 44.8349 77.9537 45.0022C77.7464 45.1696 77.5778 45.3798 77.4598 45.6187C77.3418 45.8576 77.2771 46.1192 77.2701 46.3855Z" fill="black"/>
<path d="M80.3999 144.445C81.2405 146.679 81.6117 149.062 81.49 151.445C81.36 153.855 80.9 157.095 80.21 157.115C79.79 157.115 79.16 155.905 78.27 150.275" stroke="black" stroke-width="1.85" stroke-linecap="round" stroke-linejoin="round"/>
<path d="M71.6699 156.995L89.8599 157.135C90.3882 156.053 91.2652 155.179 92.3499 154.655C93.6707 154.087 95.1633 154.065 96.5 154.595C96.99 154.755 99.6301 155.725 99.8001 157.485C99.8001 157.615 99.88 158.395 99.46 158.655C98.8 159.075 97.85 157.655 96.53 157.915C96.1136 158.02 95.7307 158.23 95.4175 158.524C95.1043 158.818 94.8712 159.187 94.74 159.595C94.6308 159.9 94.5834 160.223 94.6006 160.545C94.6178 160.868 94.699 161.184 94.8399 161.475C95.0526 161.841 95.3648 162.14 95.74 162.335C97.03 163.065 98.29 162.415 98.74 163.165C98.8118 163.257 98.8535 163.369 98.8599 163.485C98.8599 164.485 94.71 166.085 92.02 164.485C91.1733 163.966 90.5036 163.203 90.0999 162.295H71.75C71.3956 162.943 70.9162 163.514 70.3399 163.975C69.7439 164.473 69.0481 164.837 68.2993 165.042C67.5506 165.247 66.7664 165.289 66 165.165C63.57 164.615 61.8899 161.985 62.3399 161.215C62.4899 160.955 62.88 160.905 63.25 160.855C64.39 160.725 64.78 161.415 65.71 161.335C66.0801 161.286 66.4335 161.15 66.7424 160.94C67.0514 160.73 67.3074 160.451 67.49 160.125C67.6986 159.756 67.8081 159.339 67.8081 158.915C67.8081 158.491 67.6986 158.075 67.49 157.705C66.49 156.215 63.62 156.895 63.49 156.205C63.41 155.735 64.72 155.135 65.24 154.895C65.8459 154.533 66.5203 154.299 67.2207 154.21C67.9211 154.12 68.6325 154.177 69.3101 154.375C69.9382 154.625 70.4897 155.036 70.9099 155.565C71.2639 155.981 71.5232 156.469 71.6699 156.995Z" fill="#666667" stroke="black" stroke-width="1.04" stroke-miterlimit="10"/>
<path d="M76.49 161.296H75V158.096H76.4399C77.0899 158.096 77.4399 158.426 77.4399 158.936C77.4451 159.099 77.3945 159.26 77.2964 159.39C77.1982 159.521 77.0583 159.615 76.8999 159.656C77.0762 159.695 77.2335 159.794 77.3447 159.936C77.456 160.079 77.5143 160.255 77.51 160.436C77.55 160.996 77.21 161.296 76.49 161.296ZM76.3101 158.716H75.79V159.385H76.3C76.56 159.385 76.7 159.276 76.7 159.056C76.7 158.836 76.5601 158.716 76.3101 158.716ZM76.3101 159.956H75.75V160.666H76.3301C76.5901 160.666 76.74 160.546 76.74 160.326C76.74 160.106 76.6099 159.996 76.3499 159.996L76.3101 159.956Z" fill="white"/>
<path d="M77.77 158.105H78.6599L79.27 159.455L79.8899 158.115H80.77L79.6499 160.245V161.305H78.8699V160.245L77.77 158.105Z" fill="white"/>
<path d="M80.9099 158.125H83.3899V158.746H82.54V161.316H81.76V158.736H80.9199L80.9099 158.125Z" fill="white"/>
<path d="M85.74 158.786H84.55V159.436H85.55V160.046H84.55V160.746H85.73V161.366H83.73V158.166H85.73L85.74 158.786Z" fill="white"/>
<path d="M213.31 132.415V128.475H232.42C237.96 128.475 240.35 125.475 240.35 121.025C240.35 116.575 237.96 113.615 232.42 113.615H213.31V109.675H232.37C240.22 109.675 243.81 114.825 243.81 121.065C243.81 127.305 240.22 132.415 232.37 132.415H213.31Z" fill="white"/>
<path d="M222.06 75.4854V80.2053C220.328 81.0142 218.875 82.3199 217.887 83.9563C216.899 85.5927 216.42 87.4858 216.51 89.3953C216.51 95.7653 221.11 100.525 228.39 100.525C235.67 100.525 240.22 95.7653 240.22 89.3953C240.22 83.4553 236.4 79.3954 230.42 78.7754V90.7754H227.21V74.5254H230.21C233.927 74.8101 237.395 76.502 239.907 79.2559C242.42 82.0097 243.787 85.6182 243.73 89.3455C243.73 97.8355 237.4 104.505 228.35 104.505C219.3 104.505 212.92 97.8355 212.92 89.3455C212.96 82.9955 216.21 77.7354 222.06 75.4854Z" fill="white"/>
<path d="M236.79 51.5256V64.6956L243.51 67.1255V71.2856L213.51 60.3657V55.8157L243.51 44.9355V49.0957L236.79 51.5256ZM218.33 58.1057L233.59 63.5657V52.6455L218.33 58.1057Z" fill="white"/>
<path d="M366.1 97.9954H335.55V128.345H321.21V57.0254H335.52V86.3455H366.07V57.0254H380.37V128.345H366.07L366.1 97.9954Z" fill="white"/>
<path d="M489.33 114.776H460.92L456.22 128.366H441.22L466.87 56.9355H483.52L509.17 128.366H494.05L489.33 114.776ZM475.12 73.4956L464.8 103.326H485.44L475.12 73.4956Z" fill="white"/>
<path d="M602.54 56.1255C618.38 56.1255 631.25 64.6056 636.05 79.2156H619.6C616.23 72.3656 610.1 68.9956 602.44 68.9956C589.97 68.9956 581.08 78.0857 581.08 92.5957C581.08 107.106 589.97 116.206 602.44 116.206C610.1 116.206 616.23 112.825 619.6 105.885H636.05C631.25 120.595 618.38 128.976 602.54 128.976C582 128.976 566.37 113.976 566.37 92.5957C566.37 71.2157 582 56.1255 602.54 56.1255Z" fill="white"/>
<path d="M713.71 96.5854V128.365H699.4V57.0454H713.71V89.0454L739.66 57.0454H756.93L727.5 92.3953L757.75 128.395H739.66L713.71 96.5854Z" fill="white"/>
<path d="M842.86 129.075C828.05 129.075 816.6 121.315 816.4 107.825H831.72C832.13 113.545 835.91 117.325 842.55 117.325C849.19 117.325 853.28 113.745 853.28 108.645C853.28 93.2153 816.5 102.505 816.6 76.6453C816.6 63.7753 827.02 56.0054 841.74 56.0054C856.46 56.0054 866.36 63.4655 867.28 76.3455H851.55C851.24 71.6455 847.46 67.9655 841.33 67.8655C835.71 67.6555 831.52 70.4154 831.52 76.2454C831.52 90.5454 868.1 82.5753 868.1 107.715C868.1 118.995 859.11 129.075 842.86 129.075Z" fill="white"/>
<path d="M932.03 22.4153C931.32 19.4153 929.73 17.8154 926.28 17.8154C921.28 17.8154 919 21.5354 918.89 30.7354C920.7 27.7354 924.31 26.0854 928.2 26.0854C935.31 26.0854 940.29 30.7854 940.29 39.0854C940.29 46.7954 935.53 52.4353 926.99 52.4353C915.17 52.4353 912.22 44.1154 912.22 31.7554C912.22 18.7554 916.43 11.5054 926.56 11.5054C934.71 11.5054 938.56 16.7553 939.14 22.3953L932.03 22.4153ZM919.61 38.9954C919.61 43.2654 922.12 45.9453 926.61 45.9453C930.55 45.9453 933.01 43.3754 933.01 39.2654C933.01 35.1554 930.88 32.3752 926.45 32.3752C922.89 32.3752 919.61 34.4554 919.61 38.9954Z" fill="#FFE401"/>
</svg>
