<svg width="1116" height="1030" viewBox="0 0 1116 1030" fill="none" xmlns="http://www.w3.org/2000/svg">
<path d="M1064.8 64.7719C1060.4 46.961 1050.54 37.4627 1029.15 37.4627C998.161 37.4627 984.03 59.5477 983.348 114.168C994.568 96.357 1016.95 86.5616 1041.06 86.5616C1085.13 86.5616 1116 114.465 1116 163.742C1116 209.516 1086.49 243 1033.56 243C960.286 243 942 193.605 942 120.224C942 43.0431 968.099 0 1030.89 0C1081.41 0 1105.28 31.1685 1108.87 64.653L1064.8 64.7719ZM987.809 163.207C987.809 188.558 1003.37 204.469 1031.2 204.469C1055.62 204.469 1070.87 189.211 1070.87 164.81C1070.87 140.41 1057.67 123.904 1030.21 123.904C1008.14 123.904 987.809 136.254 987.809 163.207Z" fill="#FFE401"/>
<path d="M852.54 979.61C587.264 1030.13 315.08 1032.69 48.8999 987.17C57.088 939.426 80.2969 895.541 115.15 861.9C174.67 891.95 311.07 950.53 489.68 936.53C625.26 925.9 726.92 878.02 782.58 846.41C815.652 884.972 839.581 930.509 852.58 979.62L852.54 979.61Z" fill="white"/>
<path d="M151.49 833.28C124.575 850.326 101.537 872.831 83.8657 899.339C66.1941 925.847 54.2821 955.769 48.8999 987.17" stroke="black" stroke-width="17.25" stroke-linecap="round" stroke-linejoin="round"/>
<path d="M764.01 826.56C782.42 844.681 798.65 864.891 812.37 886.78C830.31 915.549 843.85 946.838 852.54 979.61" stroke="black" stroke-width="17.69" stroke-linecap="round" stroke-linejoin="round"/>
<path d="M476.37 936.82C268.37 940.96 208.98 913.72 174.98 893.53C154.133 881.129 134.649 866.569 116.85 850.09C116.74 838.83 123.45 828.85 133.35 825.26C145.66 820.78 156.35 828.53 157.21 829.14L772.21 814.14C778.009 816.078 782.929 820.016 786.09 825.25C788.143 828.799 789.287 832.801 789.42 836.9C778.98 852.242 766.673 866.226 752.78 878.53C720.85 906.73 672.29 932.9 476.37 936.82Z" fill="#666766" stroke="black" stroke-width="16.3" stroke-linecap="round" stroke-linejoin="round"/>
<path d="M751.31 833.61C738.981 846.613 725.201 858.159 710.24 868.02C665.92 896.74 618.55 900.74 523.74 902.46C424.15 904.27 374.35 905.17 339.46 900.21C339.46 900.21 225.55 884.03 167.16 835.65C157.9 827.841 149.319 819.26 141.51 810C127.489 792.814 116.634 773.274 109.45 752.29C146.97 740.34 244.59 703.72 321.04 604.82C412.42 486.61 412.14 358.89 410.81 322.7H609.57C666.4 216.96 755.57 168.1 813.5 189.7C863.74 208.41 880.24 276.35 885.28 297.09C915.65 422.17 823.28 530.24 808.34 547.15C827.406 612.398 825.157 682.028 801.92 745.91C793.27 769.45 781.05 801.74 751.31 833.61Z" fill="white"/>
<path d="M375.54 684.97C397.11 661.67 403.08 637.45 414.01 588.79C426.01 535.32 438.17 443.18 410.81 322.7L314.63 329.12C301.947 306.24 286.905 284.75 269.75 265C239.43 230.17 208.62 194.77 160.75 188.06C141.28 185.342 121.439 187.546 103.04 194.47C67.59 208.05 49.26 235.96 38.92 252.18C-12 332.08 15.98 426.28 19.69 438.12C31.69 476.47 54.08 509.18 58.16 515.06C65.9812 526.321 74.5646 537.033 83.85 547.12C77.3852 585.319 77.3852 624.332 83.85 662.53C98.69 749.61 143.61 808.7 167.2 835.65C174.872 816.841 185.716 799.489 199.26 784.35C255.59 721.9 326.19 738.28 375.54 684.97Z" fill="#666667"/>
<path d="M311.42 332.32C265.71 220.77 166.12 168.32 99.8299 191.26C18.1099 219.51 10.5199 354.13 10.0699 364.38C5.64987 464.38 65.6099 533.88 80.5999 550.32C77.5999 575.78 60.6999 740.98 170.36 838.85C243.36 904 332.36 903.59 465.36 902.97C597.52 902.36 682.36 901.97 747.47 838.85C849.47 740.06 816.17 571.85 811.59 550.32C830.59 529.32 889.43 458.91 888.53 357.97C888.37 339.13 885.22 218.09 818 191.26C760.85 168.46 666.85 217.55 612.78 325.9C512.489 314.611 411.14 316.767 311.42 332.31V332.32Z" stroke="black" stroke-width="19.24" stroke-linecap="round" stroke-linejoin="round"/>
<path d="M122.17 490.39C143.17 492.79 147.61 456.61 206.1 406.16C238.1 378.57 254.33 374.25 256.81 355.74C261.1 323.74 218.41 294.16 205.52 285.21C186.23 271.83 152.28 248.26 122.17 259.56C73.6999 277.75 76.9099 370.56 77.2799 381.39C78.7899 425.06 95.1899 487.3 122.17 490.39Z" fill="#F4C5C4"/>
<path d="M789.78 490.39C770.87 492.73 766.11 464.6 711.18 414.12C674.04 380 657.27 375.44 655.18 355.74C651.69 323.56 692.09 295.28 706.48 285.21C724.98 272.21 759.42 248.15 789.83 259.56C838.21 277.72 835.09 370.23 834.71 381.39C833.2 424.58 817.22 486.99 789.78 490.39Z" fill="#F4C5C4"/>
<path d="M202.42 608.03C232.22 582.71 267.91 575.03 292.19 588.79C297.47 591.79 304.93 597.36 311.42 608.03" stroke="black" stroke-width="19.24" stroke-linecap="round" stroke-linejoin="round"/>
<path d="M599.95 595.21C629.75 569.89 665.44 562.21 689.72 575.97C695 578.97 702.46 584.54 708.95 595.21" stroke="black" stroke-width="19.24" stroke-linecap="round" stroke-linejoin="round"/>
<path d="M340.28 726.64C347.36 726.64 353.1 720.9 353.1 713.82C353.1 706.74 347.36 701 340.28 701C333.2 701 327.46 706.74 327.46 713.82C327.46 720.9 333.2 726.64 340.28 726.64Z" fill="#060606"/>
<path d="M293.79 758.7C299.987 758.7 305.01 753.676 305.01 747.48C305.01 741.283 299.987 736.26 293.79 736.26C287.593 736.26 282.57 741.283 282.57 747.48C282.57 753.676 287.593 758.7 293.79 758.7Z" fill="#060606"/>
<path d="M263.34 733.05C270.42 733.05 276.16 727.31 276.16 720.23C276.16 713.149 270.42 707.41 263.34 707.41C256.26 707.41 250.52 713.149 250.52 720.23C250.52 727.31 256.26 733.05 263.34 733.05Z" fill="#060606"/>
<path d="M583.93 720.23C591.01 720.23 596.75 714.49 596.75 707.41C596.75 700.329 591.01 694.59 583.93 694.59C576.85 694.59 571.11 700.329 571.11 707.41C571.11 714.49 576.85 720.23 583.93 720.23Z" fill="#060606"/>
<path d="M614.38 749.09C620.577 749.09 625.6 744.783 625.6 739.47C625.6 734.157 620.577 729.85 614.38 729.85C608.183 729.85 603.16 734.157 603.16 739.47C603.16 744.783 608.183 749.09 614.38 749.09Z" fill="#060606"/>
<path d="M636.82 717.03C643.017 717.03 648.04 712.723 648.04 707.41C648.04 702.097 643.017 697.79 636.82 697.79C630.623 697.79 625.6 702.097 625.6 707.41C625.6 712.723 630.623 717.03 636.82 717.03Z" fill="#060606"/>
<path d="M378.75 630.47C403.018 619.879 429.212 614.413 455.69 614.413C482.168 614.413 508.362 619.879 532.63 630.47" stroke="black" stroke-width="3.21" stroke-linecap="round" stroke-linejoin="round"/>
<path d="M381.95 652.9C388.57 635.33 427.95 636.23 455.69 636.9C481.13 637.49 528.13 638.57 532.63 656.14C536.73 672.14 503.35 692.91 500.57 694.61C486.987 702.73 471.513 707.15 455.69 707.43C446.93 707.61 415.11 708.24 394.78 684.99C390.68 680.28 377.37 665.08 381.95 652.9Z" fill="black"/>
<path d="M452.48 710.62C450.24 724.78 443.64 752.39 420.93 773.76C400.11 793.36 376.74 797.35 340.28 803.59C296.54 811.07 269.51 815.69 237.69 803.59C195.12 787.4 172.69 752.18 163.95 736.26" stroke="black" stroke-width="12.82" stroke-linecap="round" stroke-linejoin="round"/>
<path d="M458.85 704.21C458.32 713.92 458.55 735.21 471.68 755.5C484.68 775.55 503.11 783.69 519.77 790.76C542.77 800.55 565.04 801.56 609.53 803.59C648.64 805.37 664.82 802.75 680.06 797.18C690.94 793.18 702.53 788.81 712.12 777.94C733.06 754.21 726.31 720.15 724.94 713.82" stroke="black" stroke-width="12.82" stroke-linecap="round" stroke-linejoin="round"/>
<path d="M636.25 399.67C580.063 424.249 519.223 436.38 457.906 435.23C396.589 434.081 336.246 419.678 281.02 393.01C284.88 386.48 311.16 340.29 291.29 292.25C285.079 277.496 275.488 264.407 263.29 254.04C266.447 239.477 271.66 225.436 278.77 212.34C297.35 178.19 323.77 160.34 336.87 151.78C399.42 110.69 471.66 119.05 484.71 120.78C598.71 135.89 657.71 236.56 665.21 249.78C656.09 255.93 635.43 271.72 624.55 300.11C605.62 349.6 632.85 394.23 636.25 399.67Z" fill="#FFE401" stroke="black" stroke-width="19.09" stroke-linecap="round" stroke-linejoin="round"/>
<path d="M483.13 187.64L470.92 210.96C464.793 202.08 458.67 193.197 452.55 184.31C448.957 151.39 445.37 118.463 441.79 85.5301C441.685 82.4492 442.206 79.3791 443.321 76.5051C444.436 73.6312 446.121 71.0131 448.276 68.8089C450.431 66.6046 453.011 64.86 455.859 63.6804C458.707 62.5009 461.765 61.9111 464.847 61.9463C467.929 61.9815 470.973 62.6411 473.793 63.8853C476.614 65.1295 479.153 66.9322 481.257 69.1851C483.361 71.4379 484.987 74.094 486.036 76.9927C487.085 79.8914 487.535 82.9724 487.36 86.0501L483.13 187.64Z" fill="#FFE401" stroke="black" stroke-width="8.7" stroke-linecap="round" stroke-linejoin="round"/>
<path d="M382.92 186.56C383.4 199.56 383.92 210.69 384.31 219.35C376.64 208 370.69 198.41 366.6 191.63C360.85 182.07 346.04 156.89 338.68 126.53C337.1 120.02 334.9 109.31 341.61 100.72C342.72 99.3001 346.24 94.7901 351.19 94.2201C360.19 93.2201 367.81 105.96 370.92 111.35C381.66 129.95 381.48 146.98 382.92 186.56Z" fill="#FFE401" stroke="black" stroke-width="8.7" stroke-linecap="round" stroke-linejoin="round"/>
<path d="M567.93 195.28C561.11 206.35 555.33 215.89 550.86 223.28C550.79 209.58 551.17 198.28 551.54 190.39C552.07 179.26 553.74 150.09 564.48 120.75C566.78 114.46 570.9 104.34 581.25 100.92C582.96 100.35 588.4 98.56 592.83 100.84C600.93 104.99 600.13 119.84 599.72 126.04C598.32 147.51 588.71 161.57 567.93 195.28Z" fill="#FFE401" stroke="black" stroke-width="8.7" stroke-linecap="round" stroke-linejoin="round"/>
<path d="M291.91 368.9C344.226 392.048 400.598 404.636 457.791 405.942C514.984 407.248 571.872 397.246 625.19 376.51" fill="#FFE401"/>
<path d="M291.91 368.9C344.226 392.048 400.598 404.636 457.791 405.942C514.984 407.248 571.872 397.246 625.19 376.51" stroke="black" stroke-width="8.7" stroke-linecap="round" stroke-linejoin="round"/>
<path d="M526.35 370.9C507.905 381.961 486.802 387.804 465.295 387.804C443.788 387.804 422.685 381.961 404.24 370.9V237.71H526.35V370.9Z" fill="white"/>
<path d="M475.97 289.95C475.2 283.49 472.84 279.87 466.5 279.32C456.92 278.48 453.3 287.52 451.62 305.05C456.13 299.35 464.28 296.2 473.42 297C491.85 298.62 503.95 311.42 501.97 334C500.06 355.82 484.8 368.89 461.36 366.83C428.64 363.97 422.72 339.98 425.45 308.73C428.8 270.55 442.01 253.73 470.17 256.2C494.49 258.33 503.08 275.57 502.8 292.33L475.97 289.95ZM451.59 329.11C450.91 336.92 454.97 341.44 462.49 342.11C469.41 342.71 474.19 339.11 474.86 331.46C475.49 324.23 471.6 319.46 464.38 318.8C457.75 318.21 452.25 321.59 451.59 329.11Z" fill="black"/>
<path d="M469.99 903.9C474.926 917.066 477.098 931.108 476.37 945.15C475.61 959.32 472.86 978.28 468.87 978.4C466.39 978.47 462.69 971.34 457.48 938.29" stroke="black" stroke-width="10.87" stroke-linecap="round" stroke-linejoin="round"/>
<path d="M418.79 977.58L525.43 978.43C528.472 972.058 533.608 966.922 539.98 963.88C550.57 958.97 560.37 962.17 564.32 963.51C567.17 964.51 582.7 970.12 583.69 980.43C583.77 981.21 584.12 985.77 581.69 987.33C577.83 989.77 572.27 981.61 564.54 982.96C559.54 983.85 555.54 988.43 554.04 992.84C553.57 994.21 552.1 999.2 554.66 1003.84C555.908 1005.99 557.739 1007.74 559.94 1008.9C567.48 1013.18 574.86 1009.34 577.79 1013.76C578.217 1014.29 578.459 1014.94 578.48 1015.62C578.26 1021.53 554.17 1030.86 538.42 1021.68C533.452 1018.62 529.521 1014.14 527.14 1008.82H419.54C417.47 1012.62 414.674 1015.98 411.31 1018.71C409.58 1020.11 398.76 1028.52 385.86 1025.64C371.6 1022.45 361.74 1006.99 364.37 1002.48C365.26 1000.96 367.55 1000.69 369.75 1000.42C376.39 999.63 378.75 1003.7 384.15 1003.24C388.62 1002.85 392.55 999.62 394.55 996.11C396.94 991.92 397.34 986.02 394.71 981.96C389.05 973.22 372.02 977.17 371.28 973.14C370.76 970.37 378.45 966.86 381.5 965.47C387.26 962.84 396.16 958.78 405.39 962.47C409.052 963.95 412.274 966.342 414.75 969.42C416.642 971.834 418.017 974.611 418.79 977.58Z" fill="#666667" stroke="black" stroke-width="6.07" stroke-miterlimit="10"/>
<path d="M447.03 1002.67L438.29 1002.61L438.42 983.85L446.86 983.9C450.69 983.9 452.95 985.85 452.92 988.81C452.952 989.779 452.65 990.731 452.067 991.506C451.483 992.281 450.651 992.833 449.71 993.07C450.741 993.292 451.663 993.868 452.316 994.696C452.969 995.525 453.314 996.555 453.29 997.61C453.27 1000.71 450.98 1002.7 447.03 1002.67ZM445.96 987.56H442.96V991.49H445.96C447.46 991.49 448.29 990.84 448.3 989.56C448.31 988.28 447.45 987.57 445.96 987.56ZM446.23 994.83H442.91V998.97H446.28C447.8 998.97 448.69 998.29 448.7 996.97C448.71 995.65 447.75 994.9 446.23 994.83Z" fill="white"/>
<path d="M454.56 983.96H459.75L463.33 991.85L466.99 984.02H472.12L465.54 996.54V1002.74H460.97V996.54L454.56 983.96Z" fill="white"/>
<path d="M472.95 984.09L487.46 984.19V987.85H482.46L482.35 1002.95H477.78L477.88 987.84H472.88L472.95 984.09Z" fill="white"/>
<path d="M501.23 987.95L494.31 987.9V991.69L500.43 991.74V995.27H494.31V999.39H501.23V1003.05L489.74 1002.97L489.87 984.2L501.37 984.28L501.23 987.95Z" fill="white"/>
</svg>
