<svg width="1042" height="562" viewBox="0 0 1042 562" fill="none" xmlns="http://www.w3.org/2000/svg">
<path d="M262 102.59H212V1.58984H260.43C280.92 1.58984 293.53 11.0501 293.53 27.8101C293.53 40.0001 286.37 48.02 276.53 50.74C282.077 51.9303 287.038 55.0103 290.566 59.4536C294.094 63.8969 295.968 69.4274 295.87 75.0999C295.81 92.1299 283.63 102.59 262 102.59ZM254.26 23.9299H240.07V41.71H254.26C261.14 41.71 264.86 38.85 264.86 32.97C264.86 27.09 261.14 23.9299 254.26 23.9299V23.9299ZM256.26 61.6099H240.07V79.95H256.41C263.41 79.95 267.01 77.0901 267.01 71.0701C267.01 65.0501 263.14 61.6099 256.26 61.6099Z" fill="white"/>
<path d="M356.57 103.6C327.91 103.6 304.7 82.1 304.7 51.72C304.7 21.34 327.91 0 356.57 0C385.23 0 408.3 21.35 408.3 51.72C408.3 82.09 385.21 103.6 356.57 103.6ZM356.57 77.52C371.04 77.52 379.78 67.34 379.78 51.72C379.78 35.82 371.04 25.79 356.57 25.79C341.95 25.79 333.36 35.79 333.36 51.72C333.36 67.34 341.95 77.52 356.57 77.52Z" fill="white"/>
<path d="M469.34 103.6C440.69 103.6 417.47 82.1 417.47 51.72C417.47 21.34 440.69 0 469.34 0C498.15 0 521.07 21.35 521.07 51.72C521.07 82.09 498 103.6 469.34 103.6ZM469.34 77.52C483.82 77.52 492.56 67.34 492.56 51.72C492.56 35.82 483.82 25.79 469.34 25.79C454.86 25.79 446.13 35.79 446.13 51.72C446.13 67.34 454.73 77.52 469.34 77.52Z" fill="white"/>
<path d="M528.1 1.56982H609.77V23.9297H582.83V102.59H554.75V23.9297H528.1V1.56982Z" fill="white"/>
<path d="M647.21 1.56982H675.16V60.1797C675.16 70.6397 679.88 77.2297 690.49 77.2297C701.1 77.2297 706.11 70.6397 706.11 60.1797V1.56982H734.19V60.1797C734.19 88.9797 714.13 103.6 689.91 103.6C665.69 103.6 647.21 88.9797 647.21 60.1797V1.56982Z" fill="white"/>
<path d="M791.61 68.49H777.71V102.59H749.63V1.58984H791.63C816.71 1.58984 829.46 15.78 829.46 35.27C829.44 52.87 817.26 68.49 791.61 68.49ZM788.89 46.1399C797.35 46.1399 800.78 41.84 800.78 35.25C800.78 28.66 797.35 24.25 788.89 24.25H777.71V46.1799L788.89 46.1399Z" fill="white"/>
<path d="M0 133.57H32.1001L49.8701 172.57L67.6401 133.57H99.3L63.77 202.5V234.59H35.53V202.5L0 133.57Z" fill="white"/>
<path d="M156.34 235.6C127.68 235.6 104.46 214.1 104.46 183.72C104.46 153.34 127.68 132 156.34 132C185 132 208.07 153.35 208.07 183.72C208.07 214.09 185 235.6 156.34 235.6ZM156.34 209.52C170.81 209.52 179.55 199.34 179.55 183.72C179.55 167.82 170.81 157.79 156.34 157.79C141.87 157.79 133.12 167.79 133.12 183.72C133.12 199.34 141.72 209.52 156.34 209.52Z" fill="white"/>
<path d="M220.25 133.57H248.19V192.18C248.19 202.64 252.92 209.23 263.52 209.23C274.12 209.23 279.14 202.64 279.14 192.18V133.57H307.22V192.18C307.22 220.98 287.16 235.6 262.95 235.6C238.59 235.6 220.25 220.98 220.25 192.18V133.57Z" fill="white"/>
<path d="M366.98 133.57C392.06 133.57 404.67 147.9 404.67 165.96C404.67 179.14 397.5 190.6 382.46 195.19L405.24 234.59H373.86L353.8 197.34H350.8V234.59H322.71V133.59L366.98 133.57ZM364.69 157.07H350.79V178.14H364.69C372.28 178.14 376.15 174.41 376.15 167.53C376.15 161.23 372.28 157.07 364.69 157.07Z" fill="white"/>
<path d="M537.53 184.01C537.53 213.24 517.04 234.59 484.8 234.59H444.8V133.59H484.8C517.01 133.57 537.53 154.35 537.53 184.01ZM482.65 209.81C498.84 209.81 509.02 200.63 509.02 184.01C509.02 167.39 498.84 157.93 482.65 157.93H472.9V209.81H482.65Z" fill="white"/>
<path d="M594.39 133.57C619.47 133.57 632.08 147.9 632.08 165.96C632.08 179.14 624.91 190.6 609.86 195.19L632.65 234.59H601.27L581.21 197.34H578.21V234.59H550.12V133.59L594.39 133.57ZM592.1 157.07H578.2V178.14H592.1C599.69 178.14 603.56 174.41 603.56 167.53C603.53 161.23 599.69 157.07 592.1 157.07Z" fill="white"/>
<path d="M709.46 156.07H672.91V172.55H705.16V193.9H672.91V212.1H709.46V234.59H644.83V133.59H709.46V156.07Z" fill="white"/>
<path d="M787.26 218.12H751.44L746 234.59H716.53L753.35 133.59H785.74L822.42 234.59H792.76L787.26 218.12ZM769.35 163.95L758.61 196.62H780.24L769.35 163.95Z" fill="white"/>
<path d="M831.53 133.57H865.53L890.9 199.2L915.69 133.57H949.5V234.57H921.42V178.83L902.36 234.57H878.86L859.66 178.4V234.57H831.53V133.57Z" fill="white"/>
<path d="M1003.64 235.6C981.14 235.6 963.64 224.85 962.52 203.21H992.46C993.04 210.81 997.46 213.39 1002.64 213.39C1007.82 213.39 1011.52 210.81 1011.52 206.08C1011.38 189.89 962.37 197.48 962.8 162.37C962.8 142.6 979.28 132 1000.63 132C1023.85 132 1039.04 143.32 1040.04 163.38H1009.53C1009.24 157.07 1005.37 154.21 1000.21 154.21C996.06 154.06 992.76 156.5 992.76 161.37C992.76 176.42 1041.34 171.55 1041.34 203.93C1041.33 221.71 1027.53 235.6 1003.64 235.6Z" fill="white"/>
<path d="M123 398.28H57V265H120.9C147.9 265 164.57 277.48 164.57 299.6C164.57 315.66 155.12 326.25 142.07 329.84C157.95 333.44 167.6 346.84 167.6 361.98C167.62 384.48 151.55 398.28 123 398.28ZM112.79 294.49H94.0698V317.93H112.79C121.86 317.93 126.79 314.15 126.79 306.4C126.78 298.46 121.86 294.49 112.79 294.49ZM115.44 344.21H94.0698V368.41H115.68C124.94 368.41 129.68 364.63 129.68 356.69C129.62 348.56 124.51 344.21 115.44 344.21Z" fill="#FFE401"/>
<path d="M186.31 265H223.17V342.32C223.17 356.12 229.41 364.82 243.4 364.82C257.39 364.82 264.01 356.12 264.01 342.32V265H301.06V342.32C301.06 380.32 274.6 399.6 242.65 399.6C210.51 399.6 186.31 380.32 186.31 342.32V265Z" fill="#FFE401"/>
<path d="M318.48 265H355.54V398.28H318.48V265Z" fill="#FFE401"/>
<path d="M413.77 265V369.92H455.17V398.28H376.68V265H413.77Z" fill="#FFE401"/>
<path d="M591.86 331.55C591.86 370.11 564.86 398.28 522.28 398.28H469.54V265H522.28C564.82 265 591.86 292.41 591.86 331.55ZM519.45 365.55C540.81 365.55 554.23 353.45 554.23 331.55C554.23 309.43 540.81 297.14 519.45 297.14H506.59V365.58L519.45 365.55Z" fill="#FFE401"/>
<path d="M637.23 265H744.99V294.49H709.45V398.28H672.39V294.49H637.23V265Z" fill="#FFE401"/>
<path d="M841.03 344.8H795.84V398.3H758.84V265H795.84V315.1H841.03V265H878.08V398.28H841.03V344.8Z" fill="#FFE401"/>
<path d="M984.52 294.68H936.31V316.42H978.85V344.59H936.31V368.59H984.52V398.27H899.26V265H984.52V294.68Z" fill="#FFE401"/>
<path d="M178 427H268.37V456.49H215.05V479.93H254.38V508.1H215.05V560.28H178V427Z" fill="#FFE401"/>
<path d="M283.49 427H320.35V504.32C320.35 518.12 326.59 526.82 340.58 526.82C354.57 526.82 361.19 518.12 361.19 504.32V427H398.24V504.32C398.24 542.32 371.78 561.6 339.83 561.6C307.69 561.6 283.49 542.32 283.49 504.32V427Z" fill="#FFE401"/>
<path d="M411.29 427H519.05V456.49H483.51V560.28H446.45V456.49H411.29V427Z" fill="#FFE401"/>
<path d="M532.29 427H569.15V504.32C569.15 518.12 575.39 526.82 589.38 526.82C603.37 526.82 609.99 518.12 609.99 504.32V427H647.04V504.32C647.04 542.32 620.57 561.6 588.62 561.6C556.48 561.6 532.29 542.32 532.29 504.32V427Z" fill="#FFE401"/>
<path d="M725.88 427C758.96 427 775.6 445.9 775.6 469.72C775.6 487.12 766.15 502.24 746.29 508.29L776.35 560.29H734.95L708.48 511.14H704.48V560.29H667.43V427H725.88ZM722.88 458H704.51V485.8H722.85C732.85 485.8 737.98 480.89 737.98 471.8C737.98 463.49 732.87 458 722.85 458H722.88Z" fill="#FFE401"/>
<path d="M877.71 456.68H829.5V478.42H872.04V506.59H829.5V530.59H877.71V560.27H792.44V427H877.71V456.68Z" fill="#FFE401"/>
</svg>
