<svg width="1691" height="763" viewBox="0 0 1691 763" fill="none" xmlns="http://www.w3.org/2000/svg">
<path d="M50.6401 422.78H0.640137V321.78H49.0701C69.5601 321.78 82.1702 331.24 82.1702 348C82.1702 360.19 75.0102 368.21 65.1702 370.93C70.7172 372.12 75.6784 375.2 79.2061 379.644C82.7337 384.087 84.6085 389.617 84.51 395.29C84.45 412.32 72.2701 422.78 50.6401 422.78ZM42.9001 344.12H28.7102V361.9H42.9001C49.7801 361.9 53.5 359.04 53.5 353.16C53.5 347.28 49.7801 344.12 42.9001 344.12ZM44.9001 381.8H28.7102V400.14H45.05C52.05 400.14 55.6501 397.28 55.6501 391.26C55.6501 385.24 51.7801 381.8 44.9001 381.8Z" fill="white"/>
<path d="M145.21 423.79C116.55 423.79 93.3401 402.29 93.3401 371.91C93.3401 341.53 116.55 320.19 145.21 320.19C173.87 320.19 196.94 341.54 196.94 371.91C196.94 402.28 173.85 423.79 145.21 423.79ZM145.21 397.71C159.68 397.71 168.42 387.53 168.42 371.91C168.42 356.01 159.68 345.98 145.21 345.98C130.59 345.98 122 355.98 122 371.91C122 387.53 130.59 397.71 145.21 397.71Z" fill="white"/>
<path d="M257.98 423.79C229.33 423.79 206.11 402.29 206.11 371.91C206.11 341.53 229.33 320.19 257.98 320.19C286.79 320.19 309.71 341.54 309.71 371.91C309.71 402.28 286.64 423.79 257.98 423.79ZM257.98 397.71C272.46 397.71 281.2 387.53 281.2 371.91C281.2 356.01 272.46 345.98 257.98 345.98C243.5 345.98 234.77 355.98 234.77 371.91C234.77 387.53 243.37 397.71 257.98 397.71Z" fill="white"/>
<path d="M316.74 321.76H398.41V344.12H371.47V422.78H343.39V344.12H316.74V321.76Z" fill="white"/>
<path d="M435.85 321.76H463.8V380.37C463.8 390.83 468.52 397.42 479.13 397.42C489.74 397.42 494.75 390.83 494.75 380.37V321.76H522.83V380.37C522.83 409.17 502.77 423.79 478.55 423.79C454.33 423.79 435.85 409.17 435.85 380.37V321.76Z" fill="white"/>
<path d="M580.25 388.68H566.35V422.78H538.27V321.78H580.27C605.35 321.78 618.1 335.97 618.1 355.46C618.08 373.06 605.9 388.68 580.25 388.68ZM577.53 366.33C585.99 366.33 589.42 362.03 589.42 355.44C589.42 348.85 585.99 344.44 577.53 344.44H566.35V366.37L577.53 366.33Z" fill="white"/>
<path d="M649.32 321.76H681.42L699.19 360.76L716.96 321.76H748.62L713.09 390.69V422.78H684.85V390.69L649.32 321.76Z" fill="white"/>
<path d="M805.66 423.79C777 423.79 753.78 402.29 753.78 371.91C753.78 341.53 777 320.19 805.66 320.19C834.32 320.19 857.39 341.54 857.39 371.91C857.39 402.28 834.32 423.79 805.66 423.79ZM805.66 397.71C820.13 397.71 828.87 387.53 828.87 371.91C828.87 356.01 820.13 345.98 805.66 345.98C791.19 345.98 782.44 355.98 782.44 371.91C782.44 387.53 791.04 397.71 805.66 397.71Z" fill="white"/>
<path d="M869.57 321.76H897.51V380.37C897.51 390.83 902.24 397.42 912.84 397.42C923.44 397.42 928.46 390.83 928.46 380.37V321.76H956.54V380.37C956.54 409.17 936.48 423.79 912.27 423.79C887.91 423.79 869.57 409.17 869.57 380.37V321.76Z" fill="white"/>
<path d="M1016.3 321.76C1041.38 321.76 1053.99 336.09 1053.99 354.15C1053.99 367.33 1046.82 378.79 1031.78 383.38L1054.56 422.78H1023.18L1003.12 385.53H1000.12V422.78H972.03V321.78L1016.3 321.76ZM1014.01 345.26H1000.11V366.33H1014.01C1021.6 366.33 1025.47 362.6 1025.47 355.72C1025.47 349.42 1021.6 345.26 1014.01 345.26Z" fill="white"/>
<path d="M1186.85 372.2C1186.85 401.43 1166.36 422.78 1134.12 422.78H1094.12V321.78H1134.12C1166.33 321.76 1186.85 342.54 1186.85 372.2ZM1131.97 398C1148.16 398 1158.34 388.82 1158.34 372.2C1158.34 355.58 1148.16 346.12 1131.97 346.12H1122.22V398H1131.97Z" fill="white"/>
<path d="M1243.71 321.76C1268.79 321.76 1281.4 336.09 1281.4 354.15C1281.4 367.33 1274.23 378.79 1259.18 383.38L1281.97 422.78H1250.59L1230.53 385.53H1227.53V422.78H1199.44V321.78L1243.71 321.76ZM1241.42 345.26H1227.52V366.33H1241.42C1249.01 366.33 1252.88 362.6 1252.88 355.72C1252.85 349.42 1249.01 345.26 1241.42 345.26Z" fill="white"/>
<path d="M1358.78 344.26H1322.23V360.74H1354.48V382.09H1322.23V400.29H1358.78V422.78H1294.15V321.78H1358.78V344.26Z" fill="white"/>
<path d="M1436.58 406.31H1400.76L1395.32 422.78H1365.85L1402.67 321.78H1435.06L1471.74 422.78H1442.08L1436.58 406.31ZM1418.67 352.14L1407.93 384.81H1429.56L1418.67 352.14Z" fill="white"/>
<path d="M1480.85 321.76H1514.85L1540.22 387.39L1565.01 321.76H1598.82V422.76H1570.74V367.02L1551.68 422.76H1528.18L1508.98 366.59V422.76H1480.85V321.76Z" fill="white"/>
<path d="M1652.96 423.79C1630.46 423.79 1612.96 413.04 1611.84 391.4H1641.78C1642.36 399 1646.78 401.58 1651.96 401.58C1657.14 401.58 1660.84 399 1660.84 394.27C1660.7 378.08 1611.69 385.67 1612.12 350.56C1612.12 330.79 1628.6 320.19 1649.95 320.19C1673.17 320.19 1688.36 331.51 1689.36 351.57H1658.85C1658.56 345.26 1654.69 342.4 1649.53 342.4C1645.38 342.25 1642.08 344.69 1642.08 349.56C1642.08 364.61 1690.66 359.74 1690.66 392.12C1690.65 409.9 1676.85 423.79 1652.96 423.79Z" fill="white"/>
<path d="M69.1702 579.38H3.17017V446.1H67.0701C94.0701 446.1 110.74 458.58 110.74 480.7C110.74 496.76 101.29 507.35 88.24 510.94C104.12 514.54 113.77 527.94 113.77 543.08C113.79 565.58 97.7202 579.38 69.1702 579.38ZM58.9602 475.59H40.24V499.03H58.9602C68.0302 499.03 72.9602 495.25 72.9602 487.5C72.9502 479.56 68.0302 475.59 58.9602 475.59ZM61.6101 525.31H40.24V549.51H61.8501C71.1101 549.51 75.8501 545.73 75.8501 537.79C75.7901 529.66 70.6801 525.31 61.6101 525.31Z" fill="#FFE401"/>
<path d="M129.48 446.1H166.34V523.42C166.34 537.22 172.58 545.92 186.57 545.92C200.56 545.92 207.18 537.22 207.18 523.42V446.1H244.23V523.42C244.23 561.42 217.77 580.7 185.82 580.7C153.68 580.7 129.48 561.42 129.48 523.42V446.1Z" fill="#FFE401"/>
<path d="M264.65 446.1H301.71V579.38H264.65V446.1Z" fill="#FFE401"/>
<path d="M359.94 446.1V551.02H401.34V579.38H322.85V446.1H359.94Z" fill="#FFE401"/>
<path d="M538.03 512.65C538.03 551.21 511.03 579.38 468.45 579.38H415.71V446.1H468.45C510.99 446.1 538.03 473.51 538.03 512.65ZM465.62 546.65C486.98 546.65 500.4 534.55 500.4 512.65C500.4 490.53 486.98 478.24 465.62 478.24H452.76V546.68L465.62 546.65Z" fill="#FFE401"/>
<path d="M583.4 446.1H691.16V475.59H655.62V579.38H618.56V475.59H583.4V446.1Z" fill="#FFE401"/>
<path d="M787.2 525.9H742.01V579.4H705.01V446.1H742.01V496.2H787.2V446.1H824.25V579.38H787.2V525.9Z" fill="#FFE401"/>
<path d="M930.69 475.78H882.48V497.52H925.02V525.69H882.48V549.69H930.69V579.37H845.43V446.1H930.69V475.78Z" fill="#FFE401"/>
<path d="M985.14 446.1H1075.51V475.59H1022.19V499.03H1061.52V527.2H1022.19V579.38H985.14V446.1Z" fill="#FFE401"/>
<path d="M1090.63 446.1H1127.49V523.42C1127.49 537.22 1133.73 545.92 1147.72 545.92C1161.71 545.92 1168.33 537.22 1168.33 523.42V446.1H1205.38V523.42C1205.38 561.42 1178.92 580.7 1146.97 580.7C1114.83 580.7 1090.63 561.42 1090.63 523.42V446.1Z" fill="#FFE401"/>
<path d="M1218.43 446.1H1326.19V475.59H1290.65V579.38H1253.59V475.59H1218.43V446.1Z" fill="#FFE401"/>
<path d="M1339.43 446.1H1376.29V523.42C1376.29 537.22 1382.53 545.92 1396.52 545.92C1410.51 545.92 1417.13 537.22 1417.13 523.42V446.1H1454.18V523.42C1454.18 561.42 1427.71 580.7 1395.76 580.7C1363.62 580.7 1339.43 561.42 1339.43 523.42V446.1Z" fill="#FFE401"/>
<path d="M1533.02 446.1C1566.1 446.1 1582.74 465 1582.74 488.82C1582.74 506.22 1573.29 521.34 1553.43 527.39L1583.49 579.39H1542.09L1515.62 530.24H1511.62V579.39H1474.57V446.1H1533.02ZM1530.02 477.1H1511.65V504.9H1529.99C1539.99 504.9 1545.12 499.99 1545.12 490.9C1545.12 482.59 1540.01 477.1 1529.99 477.1H1530.02Z" fill="#FFE401"/>
<path d="M1684.85 475.78H1636.64V497.52H1679.18V525.69H1636.64V549.69H1684.85V579.37H1599.58V446.1H1684.85V475.78Z" fill="#FFE401"/>
<path d="M736.431 699.47V707.225H720.24V715.604H732.355V723.133H720.24V739.21H710.56V699.47H736.431ZM766.257 732.19H751.425L749.048 739.21H738.914L753.293 699.47H764.502L778.881 739.21H768.635L766.257 732.19ZM763.766 724.718L758.841 710.169L753.973 724.718H763.766ZM792.938 731.737H805.618V739.21H783.257V699.47H792.938V731.737ZM819.916 731.737H832.596V739.21H810.235V699.47H819.916V731.737ZM847.908 731.454C849.191 730.435 849.776 729.964 849.663 730.039C853.362 726.982 856.268 724.472 858.381 722.51C860.532 720.548 862.344 718.491 863.816 716.34C865.287 714.188 866.023 712.094 866.023 710.056C866.023 708.508 865.665 707.301 864.948 706.433C864.231 705.565 863.155 705.131 861.721 705.131C860.287 705.131 859.155 705.678 858.324 706.772C857.532 707.829 857.136 709.339 857.136 711.301H847.795C847.87 708.093 848.55 705.414 849.833 703.263C851.154 701.111 852.871 699.526 854.984 698.507C857.136 697.488 859.513 696.979 862.117 696.979C866.608 696.979 869.986 698.13 872.25 700.432C874.553 702.734 875.704 705.735 875.704 709.433C875.704 713.471 874.326 717.226 871.571 720.698C868.816 724.133 865.306 727.492 861.042 730.775H876.326V738.644H847.908V731.454ZM880.588 717.981C880.588 711.49 881.834 706.376 884.325 702.64C886.853 698.904 890.91 697.036 896.496 697.036C902.081 697.036 906.12 698.904 908.61 702.64C911.139 706.376 912.403 711.49 912.403 717.981C912.403 724.548 911.139 729.699 908.61 733.436C906.12 737.172 902.081 739.04 896.496 739.04C890.91 739.04 886.853 737.172 884.325 733.436C881.834 729.699 880.588 724.548 880.588 717.981ZM902.893 717.981C902.893 714.169 902.478 711.245 901.647 709.207C900.817 707.131 899.1 706.093 896.496 706.093C893.892 706.093 892.175 707.131 891.344 709.207C890.514 711.245 890.099 714.169 890.099 717.981C890.099 720.548 890.25 722.68 890.552 724.378C890.854 726.039 891.458 727.397 892.363 728.454C893.307 729.473 894.684 729.983 896.496 729.983C898.307 729.983 899.666 729.473 900.572 728.454C901.515 727.397 902.138 726.039 902.44 724.378C902.742 722.68 902.893 720.548 902.893 717.981ZM917.178 731.454C918.461 730.435 919.046 729.964 918.933 730.039C922.631 726.982 925.537 724.472 927.651 722.51C929.802 720.548 931.614 718.491 933.085 716.34C934.557 714.188 935.293 712.094 935.293 710.056C935.293 708.508 934.935 707.301 934.218 706.433C933.501 705.565 932.425 705.131 930.991 705.131C929.557 705.131 928.424 705.678 927.594 706.772C926.802 707.829 926.405 709.339 926.405 711.301H917.065C917.14 708.093 917.82 705.414 919.103 703.263C920.424 701.111 922.141 699.526 924.254 698.507C926.405 697.488 928.783 696.979 931.387 696.979C935.878 696.979 939.256 698.13 941.52 700.432C943.822 702.734 944.973 705.735 944.973 709.433C944.973 713.471 943.596 717.226 940.841 720.698C938.086 724.133 934.576 727.492 930.311 730.775H945.596V738.644H917.178V731.454ZM949.858 717.981C949.858 711.49 951.104 706.376 953.595 702.64C956.123 698.904 960.18 697.036 965.766 697.036C971.351 697.036 975.389 698.904 977.88 702.64C980.409 706.376 981.673 711.49 981.673 717.981C981.673 724.548 980.409 729.699 977.88 733.436C975.389 737.172 971.351 739.04 965.766 739.04C960.18 739.04 956.123 737.172 953.595 733.436C951.104 729.699 949.858 724.548 949.858 717.981ZM972.163 717.981C972.163 714.169 971.748 711.245 970.917 709.207C970.087 707.131 968.37 706.093 965.766 706.093C963.162 706.093 961.444 707.131 960.614 709.207C959.784 711.245 959.369 714.169 959.369 717.981C959.369 720.548 959.52 722.68 959.822 724.378C960.124 726.039 960.727 727.397 961.633 728.454C962.577 729.473 963.954 729.983 965.766 729.983C967.577 729.983 968.936 729.473 969.842 728.454C970.785 727.397 971.408 726.039 971.71 724.378C972.012 722.68 972.163 720.548 972.163 717.981Z" fill="white"/>
<path d="M520.31 157.27C475.05 165.885 428.613 166.318 383.2 158.55C384.601 150.405 388.563 142.919 394.51 137.18C412.22 146.217 431.901 150.708 451.779 150.247C471.656 149.786 491.108 144.388 508.38 134.54C512.008 138.783 515.002 143.529 517.27 148.63C518.514 151.423 519.531 154.313 520.31 157.27Z" fill="white"/>
<path d="M456.13 149.97C420.65 150.67 410.52 145.97 404.71 142.58C401.157 140.463 397.835 137.979 394.8 135.17C394.775 134.26 395.031 133.364 395.534 132.605C396.037 131.846 396.762 131.261 397.61 130.93C398.293 130.716 399.016 130.665 399.723 130.779C400.429 130.894 401.1 131.171 401.68 131.59L506.61 129.04C507.598 129.366 508.436 130.037 508.97 130.93C509.325 131.538 509.521 132.226 509.54 132.93C507.763 135.549 505.663 137.934 503.29 140.03C497.85 144.83 489.56 149.3 456.13 149.97Z" fill="#666766" stroke="black" stroke-width="2.78" stroke-linecap="round" stroke-linejoin="round"/>
<path d="M503.04 132.36C500.937 134.575 498.588 136.545 496.04 138.23C488.48 143.13 480.4 143.81 464.23 144.1C447.23 144.41 438.74 144.57 432.79 143.72C432.79 143.72 413.35 140.96 403.39 132.72C401.811 131.387 400.346 129.926 399.01 128.35C396.62 125.416 394.771 122.081 393.55 118.5C407.84 113.941 420.42 105.171 429.64 93.3395C445.23 73.1795 445.19 51.3396 444.96 45.2096H478.85C488.54 27.2096 503.76 18.8397 513.64 22.5197C522.21 25.7097 525.03 37.2995 525.89 40.8395C531.07 62.1795 515.3 80.6097 512.76 83.4997C516.015 94.6309 515.634 106.51 511.67 117.41C509.88 122.946 506.939 128.041 503.04 132.36Z" fill="white"/>
<path d="M438.93 107C442.61 103 443.63 98.8897 445.5 90.5897C447.5 81.4697 449.62 65.7498 444.95 45.1898L428.54 46.2896C426.377 42.3844 423.81 38.7176 420.88 35.3497C415.71 29.4097 410.45 23.3498 402.29 22.2198C398.967 21.7605 395.582 22.1349 392.44 23.3096C386.39 25.6296 383.27 30.3897 381.5 33.1597C372.81 46.7897 377.59 62.8597 378.22 64.8797C379.781 69.542 381.989 73.962 384.78 78.0098C386.115 79.9298 387.579 81.7572 389.16 83.4798C388.055 89.9966 388.055 96.653 389.16 103.17C391.094 114.133 396.015 124.351 403.38 132.7C404.693 129.494 406.543 126.534 408.85 123.95C418.47 113.29 430.51 116.09 438.93 107Z" fill="#666667"/>
<path d="M427.99 46.8296C420.19 27.8296 403.2 18.8298 391.89 22.7698C377.95 27.5898 376.66 50.5495 376.58 52.2995C375.83 69.3695 386.06 81.2195 388.58 84.0295C388.07 88.3695 385.19 116.55 403.9 133.25C416.35 144.37 431.54 144.3 454.22 144.19C476.9 144.08 491.22 144.02 502.35 133.25C519.74 116.4 514.07 87.6995 513.29 84.0295C516.53 80.4395 526.57 68.4297 526.41 51.2097C526.41 47.9897 525.85 27.3398 514.41 22.7698C504.66 18.8798 488.63 27.2498 479.41 45.7698C462.298 43.8494 445.006 44.2158 427.99 46.8596V46.8296Z" stroke="black" stroke-width="3.28" stroke-linecap="round" stroke-linejoin="round"/>
<path d="M395.7 73.7997C399.29 74.2097 400.04 68.0398 410.02 59.4298C415.48 54.7198 418.25 53.9897 418.68 50.8297C419.41 45.3797 412.12 40.3197 409.92 38.8297C406.63 36.5397 400.84 32.5198 395.7 34.4498C387.44 37.5498 387.98 53.3898 388.05 55.2298C388.3 62.6598 391.1 73.2697 395.7 73.7997Z" fill="#F4C5C4"/>
<path d="M509.6 73.7997C506.38 74.1997 505.6 69.3997 496.19 60.7997C489.86 54.9797 487 54.1997 486.63 50.7997C486.04 45.3097 492.93 40.4797 495.38 38.7997C498.54 36.5897 504.38 32.4698 509.6 34.4198C517.86 37.5198 517.33 53.2998 517.26 55.1998C517.01 62.5698 514.28 73.2197 509.6 73.7997Z" fill="#F4C5C4"/>
<path d="M409.4 93.8995C414.48 89.5795 420.57 88.2595 424.71 90.6195C426.071 91.4075 427.202 92.5384 427.99 93.8995" stroke="black" stroke-width="3.28" stroke-linecap="round" stroke-linejoin="round"/>
<path d="M477.22 91.6798C482.3 87.3598 488.39 86.0497 492.53 88.3997C493.891 89.1877 495.022 90.3186 495.81 91.6798" stroke="black" stroke-width="3.28" stroke-linecap="round" stroke-linejoin="round"/>
<path d="M432.92 114.11C434.129 114.11 435.11 113.129 435.11 111.92C435.11 110.71 434.129 109.73 432.92 109.73C431.71 109.73 430.73 110.71 430.73 111.92C430.73 113.129 431.71 114.11 432.92 114.11Z" fill="#060606"/>
<path d="M424.99 119.57C426.045 119.57 426.9 118.715 426.9 117.66C426.9 116.605 426.045 115.75 424.99 115.75C423.935 115.75 423.08 116.605 423.08 117.66C423.08 118.715 423.935 119.57 424.99 119.57Z" fill="#060606"/>
<path d="M419.79 115.2C421 115.2 421.98 114.219 421.98 113.01C421.98 111.8 421 110.82 419.79 110.82C418.581 110.82 417.6 111.8 417.6 113.01C417.6 114.219 418.581 115.2 419.79 115.2Z" fill="#060606"/>
<path d="M474.49 113.01C475.699 113.01 476.68 112.03 476.68 110.82C476.68 109.611 475.699 108.63 474.49 108.63C473.28 108.63 472.3 109.611 472.3 110.82C472.3 112.03 473.28 113.01 474.49 113.01Z" fill="#060606"/>
<path d="M479.68 117.93C480.735 117.93 481.59 117.196 481.59 116.29C481.59 115.384 480.735 114.65 479.68 114.65C478.625 114.65 477.77 115.384 477.77 116.29C477.77 117.196 478.625 117.93 479.68 117.93Z" fill="#060606"/>
<path d="M483.51 112.46C484.565 112.46 485.42 111.726 485.42 110.82C485.42 109.914 484.565 109.18 483.51 109.18C482.455 109.18 481.6 109.914 481.6 110.82C481.6 111.726 482.455 112.46 483.51 112.46Z" fill="#060606"/>
<path d="M439.48 97.7C443.621 95.8966 448.089 94.9658 452.605 94.9658C457.121 94.9658 461.589 95.8966 465.73 97.7" stroke="black" stroke-width="0.55" stroke-linecap="round" stroke-linejoin="round"/>
<path d="M440.03 101.53C441.15 98.5299 447.87 98.6799 452.61 98.7899C456.95 98.8899 464.96 99.08 465.73 102.08C466.43 104.8 460.73 108.35 460.26 108.64C457.945 110.027 455.308 110.782 452.61 110.83C451.11 110.83 445.68 110.96 442.21 107C441.51 106.2 439.24 103.6 440.03 101.53Z" fill="black"/>
<path d="M452.06 111.37C451.498 115.456 449.608 119.244 446.68 122.15C443.12 125.49 439.14 126.15 432.92 127.23C425.45 128.51 420.84 129.3 415.41 127.23C408.15 124.47 404.32 118.46 402.83 115.75" stroke="black" stroke-width="2.19" stroke-linecap="round" stroke-linejoin="round"/>
<path d="M453.15 110.28C452.945 113.354 453.711 116.415 455.34 119.03C457.55 122.45 460.7 123.84 463.54 125.03C467.47 126.7 471.27 126.87 478.86 127.21C485.53 127.52 488.29 127.07 490.86 126.12C492.941 125.528 494.828 124.396 496.33 122.84C499.9 118.79 498.75 112.98 498.52 111.9" stroke="black" stroke-width="2.19" stroke-linecap="round" stroke-linejoin="round"/>
<path d="M483.41 58.3197C473.825 62.5112 463.446 64.5804 452.987 64.3854C442.527 64.1903 432.233 61.7357 422.81 57.1898C423.46 56.0698 427.95 48.1899 424.56 39.9999C423.501 37.4812 421.863 35.2475 419.78 33.4799C420.32 30.994 421.209 28.5969 422.42 26.3598C424.794 22.132 428.204 18.5773 432.33 16.0297C443.01 9.02968 455.33 10.4499 457.56 10.7399C477.01 13.3199 487.07 30.4999 488.35 32.7399C485.215 34.8257 482.796 37.8241 481.42 41.3297C478.18 49.7797 482.85 57.3997 483.41 58.3197Z" fill="#FFE401" stroke="black" stroke-width="3.26" stroke-linecap="round" stroke-linejoin="round"/>
<path d="M457.29 22.1497L455.2 26.1497L452.07 21.5996L450.23 4.74977C450.236 4.23893 450.343 3.73412 450.543 3.26442C450.744 2.79472 451.036 2.36926 451.401 2.01222C451.767 1.65518 452.199 1.37364 452.673 1.18361C453.147 0.993578 453.654 0.898647 454.165 0.904557C454.676 0.910466 455.181 1.01708 455.65 1.21803C456.12 1.41898 456.546 1.71054 456.903 2.07594C457.26 2.44134 457.541 2.87345 457.731 3.34767C457.921 3.82189 458.016 4.32877 458.01 4.83962L457.29 22.1497Z" fill="#FFE401" stroke="black" stroke-width="1.48" stroke-linecap="round" stroke-linejoin="round"/>
<path d="M440.19 21.9697C440.27 24.1797 440.36 26.0796 440.43 27.5596C439.12 25.6196 438.1 23.9896 437.43 22.8296C435.3 19.3823 433.692 15.6384 432.66 11.7197C432.39 10.6097 432.02 8.78959 433.16 7.31959C433.547 6.75523 434.133 6.35866 434.8 6.20973C436.34 6.02973 437.63 8.20965 438.16 9.12965C439.98 12.3096 439.94 15.2097 440.19 21.9697Z" fill="#FFE401" stroke="black" stroke-width="1.48" stroke-linecap="round" stroke-linejoin="round"/>
<path d="M471.75 23.4501C470.59 25.3401 469.6 26.9701 468.84 28.2401C468.84 25.9001 468.9 23.98 468.96 22.63C469.1 18.5819 469.845 14.5777 471.17 10.7501C471.56 9.67012 472.26 7.93998 474.03 7.35998C474.671 7.09876 475.389 7.09876 476.03 7.35998C477.41 8.06998 477.28 10.6 477.21 11.66C476.94 15.3 475.3 17.7001 471.75 23.4501Z" fill="#FFE401" stroke="black" stroke-width="1.48" stroke-linecap="round" stroke-linejoin="round"/>
<path d="M424.66 53.0698C433.585 57.0227 443.202 59.1727 452.96 59.3958C462.719 59.6189 472.424 57.9108 481.52 54.3699" fill="#FFE401"/>
<path d="M424.66 53.0698C433.585 57.0227 443.202 59.1727 452.96 59.3958C462.719 59.6189 472.424 57.9108 481.52 54.3699" stroke="black" stroke-width="1.48" stroke-linecap="round" stroke-linejoin="round"/>
<path d="M464.66 53.4199C461.514 55.3069 457.914 56.3035 454.245 56.3035C450.576 56.3035 446.976 55.3069 443.83 53.4199V30.6899H464.66V53.4199Z" fill="white"/>
<path d="M456.07 39.5999C455.93 38.4999 455.53 37.8898 454.45 37.7898C452.82 37.6498 452.2 39.19 451.91 42.18C452.371 41.6644 452.951 41.2699 453.599 41.031C454.248 40.7922 454.945 40.7161 455.63 40.8099C458.77 41.0799 460.84 43.2699 460.5 47.1099C460.16 50.9499 457.57 53.11 453.57 52.72C447.99 52.23 446.98 48.1298 447.45 42.7998C448.02 36.2898 450.27 33.4198 455.08 33.7998C459.23 34.1598 460.69 37.11 460.64 39.97L456.07 39.5999ZM451.91 46.2898C451.854 46.5621 451.86 46.8436 451.929 47.1131C451.997 47.3825 452.126 47.6331 452.305 47.8457C452.484 48.0584 452.708 48.2278 452.962 48.3411C453.216 48.4544 453.492 48.5088 453.77 48.5C454.033 48.5461 454.302 48.5331 454.559 48.4622C454.816 48.3913 455.055 48.264 455.256 48.0899C455.458 47.9157 455.619 47.699 455.727 47.4551C455.835 47.2113 455.887 46.9465 455.88 46.68C455.929 46.4174 455.919 46.1475 455.851 45.8892C455.784 45.6309 455.66 45.3905 455.489 45.1853C455.318 44.9802 455.104 44.8152 454.863 44.7019C454.621 44.5887 454.357 44.5298 454.09 44.5298C453.828 44.4805 453.559 44.4887 453.301 44.5538C453.042 44.6188 452.801 44.7392 452.594 44.9065C452.387 45.0739 452.218 45.2841 452.1 45.523C451.982 45.7619 451.917 46.0235 451.91 46.2898Z" fill="black"/>
<path d="M455.04 144.35C455.881 146.583 456.252 148.966 456.13 151.35C456 153.76 455.54 157 454.85 157.02C454.43 157.02 453.8 155.81 452.91 150.18" stroke="black" stroke-width="1.85" stroke-linecap="round" stroke-linejoin="round"/>
<path d="M446.31 156.9L464.5 157.04C465.028 155.957 465.905 155.084 466.99 154.56C468.311 153.991 469.803 153.969 471.14 154.5C471.63 154.66 474.27 155.63 474.44 157.39C474.44 157.52 474.52 158.3 474.1 158.56C473.44 158.98 472.49 157.56 471.17 157.82C470.754 157.925 470.371 158.134 470.058 158.428C469.744 158.722 469.511 159.091 469.38 159.5C469.271 159.804 469.224 160.127 469.241 160.45C469.258 160.773 469.339 161.089 469.48 161.38C469.693 161.746 470.005 162.044 470.38 162.24C471.67 162.97 472.93 162.32 473.38 163.07C473.452 163.161 473.494 163.273 473.5 163.39C473.5 164.39 469.35 165.99 466.66 164.39C465.813 163.871 465.144 163.107 464.74 162.2H446.39C446.036 162.847 445.556 163.418 444.98 163.88C444.384 164.377 443.688 164.741 442.939 164.946C442.191 165.152 441.407 165.194 440.64 165.07C438.21 164.52 436.53 161.89 436.98 161.12C437.13 160.86 437.52 160.81 437.89 160.76C439.03 160.63 439.42 161.32 440.35 161.24C440.72 161.19 441.074 161.054 441.383 160.845C441.691 160.635 441.948 160.355 442.13 160.03C442.339 159.66 442.448 159.244 442.448 158.82C442.448 158.396 442.339 157.979 442.13 157.61C441.13 156.12 438.26 156.8 438.13 156.11C438.05 155.64 439.36 155.04 439.88 154.8C440.486 154.437 441.16 154.204 441.861 154.114C442.561 154.025 443.273 154.081 443.95 154.28C444.578 154.53 445.13 154.94 445.55 155.47C445.904 155.886 446.163 156.374 446.31 156.9Z" fill="#666667" stroke="black" stroke-width="1.04" stroke-miterlimit="10"/>
<path d="M451.13 161.2H449.64V158H451.08C451.73 158 452.08 158.33 452.08 158.84C452.085 159.003 452.035 159.164 451.937 159.295C451.838 159.426 451.698 159.519 451.54 159.56C451.716 159.599 451.874 159.698 451.985 159.841C452.096 159.983 452.154 160.159 452.15 160.34C452.19 160.9 451.85 161.2 451.13 161.2ZM450.95 158.62H450.43V159.29H450.94C451.2 159.29 451.34 159.18 451.34 158.96C451.34 158.74 451.2 158.62 450.95 158.62ZM450.95 159.86H450.39V160.57H450.97C451.23 160.57 451.38 160.45 451.38 160.23C451.38 160.01 451.25 159.9 450.99 159.9L450.95 159.86Z" fill="white"/>
<path d="M452.41 158.01H453.3L453.91 159.36L454.53 158.02H455.41L454.29 160.15V161.21H453.51V160.15L452.41 158.01Z" fill="white"/>
<path d="M455.55 158.03H458.03V158.65H457.18V161.22H456.4V158.64H455.56L455.55 158.03Z" fill="white"/>
<path d="M460.38 158.69H459.19V159.34H460.19V159.95H459.19V160.65H460.37V161.27H458.37V158.07H460.37L460.38 158.69Z" fill="white"/>
<path d="M587.95 132.32V128.38H607.06C612.6 128.38 614.99 125.38 614.99 120.93C614.99 116.48 612.6 113.52 607.06 113.52H587.95V109.58H607.01C614.86 109.58 618.45 114.73 618.45 120.97C618.45 127.21 614.86 132.32 607.01 132.32H587.95Z" fill="white"/>
<path d="M596.7 75.3896V80.1096C594.968 80.9185 593.516 82.2242 592.527 83.8606C591.539 85.497 591.06 87.3901 591.15 89.2996C591.15 95.6696 595.75 100.43 603.03 100.43C610.31 100.43 614.86 95.6696 614.86 89.2996C614.86 83.3596 611.04 79.2997 605.06 78.6797V90.6797H601.85V74.4297H604.85C608.567 74.7144 612.035 76.4063 614.547 79.1602C617.06 81.914 618.427 85.5225 618.37 89.2498C618.37 97.7398 612.04 104.41 602.99 104.41C593.94 104.41 587.56 97.7398 587.56 89.2498C587.6 82.8998 590.85 77.6396 596.7 75.3896Z" fill="white"/>
<path d="M611.43 51.4299V64.5999L618.15 67.0298V71.1899L588.15 60.27V55.72L618.15 44.8398V49L611.43 51.4299ZM592.97 58.01L608.23 63.47V52.5498L592.97 58.01Z" fill="white"/>
<path d="M740.74 97.8997H710.19V128.25H695.85V56.9297H710.16V86.2498H740.71V56.9297H755.01V128.25H740.71L740.74 97.8997Z" fill="white"/>
<path d="M863.97 114.68H835.56L830.86 128.27H815.86L841.51 56.8398H858.16L883.81 128.27H868.69L863.97 114.68ZM849.76 73.3999L839.44 103.23H860.08L849.76 73.3999Z" fill="white"/>
<path d="M977.18 56.0298C993.02 56.0298 1005.89 64.5099 1010.69 79.1199H994.24C990.87 72.2699 984.74 68.8999 977.08 68.8999C964.61 68.8999 955.72 77.99 955.72 92.5C955.72 107.01 964.61 116.11 977.08 116.11C984.74 116.11 990.87 112.73 994.24 105.79H1010.69C1005.89 120.5 993.02 128.88 977.18 128.88C956.64 128.88 941.01 113.88 941.01 92.5C941.01 71.12 956.64 56.0298 977.18 56.0298Z" fill="white"/>
<path d="M1088.35 96.4897V128.27H1074.04V56.9497H1088.35V88.9497L1114.3 56.9497H1131.57L1102.14 92.2996L1132.39 128.3H1114.3L1088.35 96.4897Z" fill="white"/>
<path d="M1217.5 128.98C1202.69 128.98 1191.24 121.22 1191.04 107.73H1206.36C1206.77 113.45 1210.55 117.23 1217.19 117.23C1223.83 117.23 1227.92 113.65 1227.92 108.55C1227.92 93.1196 1191.14 102.41 1191.24 76.5496C1191.24 63.6796 1201.66 55.9097 1216.38 55.9097C1231.1 55.9097 1241 63.3698 1241.92 76.2498H1226.19C1225.88 71.5498 1222.1 67.8698 1215.97 67.7698C1210.35 67.5598 1206.16 70.3197 1206.16 76.1497C1206.16 90.4497 1242.74 82.4796 1242.74 107.62C1242.74 118.9 1233.75 128.98 1217.5 128.98Z" fill="white"/>
<path d="M1306.67 22.3196C1305.96 19.3196 1304.37 17.7197 1300.92 17.7197C1295.92 17.7197 1293.64 21.4396 1293.53 30.6396C1295.34 27.6396 1298.95 25.9897 1302.84 25.9897C1309.95 25.9897 1314.93 30.6897 1314.93 38.9897C1314.93 46.6997 1310.17 52.3396 1301.63 52.3396C1289.81 52.3396 1286.86 44.0197 1286.86 31.6597C1286.86 18.6597 1291.07 11.4097 1301.2 11.4097C1309.35 11.4097 1313.2 16.6596 1313.78 22.2996L1306.67 22.3196ZM1294.25 38.8997C1294.25 43.1697 1296.76 45.8496 1301.25 45.8496C1305.19 45.8496 1307.65 43.2797 1307.65 39.1697C1307.65 35.0597 1305.52 32.2795 1301.09 32.2795C1297.53 32.2795 1294.25 34.3597 1294.25 38.8997Z" fill="#FFE401"/>
</svg>
