<?xml version="1.0" standalone="no"?>
<!DOCTYPE svg PUBLIC "-//W3C//DTD SVG 20010904//EN"
 "http://www.w3.org/TR/2001/REC-SVG-20010904/DTD/svg10.dtd">
<svg version="1.0" xmlns="http://www.w3.org/2000/svg"
 width="1126.000000pt" height="1126.000000pt" viewBox="0 0 1126.000000 1126.000000"
 preserveAspectRatio="xMidYMid meet">
<metadata>
Created by potrace 1.11, written by Peter Selinger 2001-2013
</metadata>
<g transform="translate(0.000000,1126.000000) scale(0.100000,-0.100000)"
fill="#000000" stroke="none">
<path d="M0 9505 l0 -1486 23 -10 22 -10 -22 5 c-23 4 -23 3 -23 -124 0 -93 3
-130 13 -133 9 -4 9 -6 0 -6 -10 -1 -13 -200 -13 -961 l0 -960 663 -3 662 -2
-662 -3 -663 -2 0 -1780 0 -1780 1018 -3 1017 -2 -1017 -3 -1018 -2 0 -985 0
-985 698 2 697 3 7 135 c29 606 269 1163 695 1618 l78 84 86 -70 c169 -136
405 -289 578 -376 502 -253 1213 -366 2400 -385 l424 -6 29 -130 c15 -71 31
-143 34 -159 6 -25 5 -28 -10 -23 -10 4 -102 7 -204 7 l-187 0 -24 45 c-62
118 -209 158 -359 99 -127 -51 -172 -85 -172 -132 0 -31 23 -43 102 -54 40 -5
88 -16 106 -23 66 -28 73 -123 12 -177 -35 -32 -66 -35 -127 -12 -51 20 -125
12 -154 -17 -41 -41 -10 -127 76 -208 78 -74 131 -96 230 -95 107 0 188 38
268 124 l56 60 540 0 539 0 36 -49 c37 -49 85 -86 146 -112 58 -23 232 -18
302 10 104 41 142 99 99 152 -14 18 -33 24 -89 30 -87 9 -128 30 -149 74 -15
31 -15 37 1 79 20 52 57 86 93 86 13 0 46 -11 73 -25 86 -43 131 -29 145 46
25 133 -190 280 -389 267 -103 -7 -196 -58 -251 -138 l-28 -40 -237 0 c-130 0
-239 2 -242 5 -3 3 1 31 8 63 7 31 17 99 22 150 5 51 12 96 16 99 3 4 115 10
249 15 924 30 1601 121 2047 273 144 49 366 161 480 242 54 39 160 132 246
218 l151 151 75 -101 c339 -453 568 -971 677 -1528 16 -83 33 -180 37 -214 l7
-63 658 0 659 0 0 5360 0 5360 -4485 0 -4486 0 29 -42 c36 -54 44 -68 39 -68
-2 0 -21 25 -41 55 l-36 55 -156 0 c-148 0 -156 -1 -143 -17 13 -17 13 -17 -7
0 -18 15 -43 17 -180 17 l-159 0 76 -77 c41 -43 86 -91 99 -108 14 -16 -22 18
-78 78 l-104 107 -814 0 -814 0 0 -1485z m8137 1453 c-3 -8 -6 -5 -6 6 -1 11
2 17 5 13 3 -3 4 -12 1 -19z m829 -36 c-5 -4 -106 46 -106 53 0 3 25 -7 55
-22 30 -15 53 -29 51 -31z m1901 26 c-3 -8 -6 -5 -6 6 -1 11 2 17 5 13 3 -3 4
-12 1 -19z m-2740 -50 c-3 -7 -5 -2 -5 12 0 14 2 19 5 13 2 -7 2 -19 0 -25z
m2750 -15 c-3 -10 -5 -2 -5 17 0 19 2 27 5 18 2 -10 2 -26 0 -35z m-8497 -33
c6 -11 8 -20 6 -20 -3 0 -10 9 -16 20 -6 11 -8 20 -6 20 3 0 10 -9 16 -20z
m5737 -32 c-2 -13 -4 -5 -4 17 -1 22 1 32 4 23 2 -10 2 -28 0 -40z m2770 -20
c-2 -13 -4 -3 -4 22 0 25 2 35 4 23 2 -13 2 -33 0 -45z m-8762 -22 l17 -31
-20 24 c-11 14 -27 38 -37 55 l-17 31 20 -24 c11 -14 27 -38 37 -55z m321 -47
c25 -50 44 -93 42 -95 -2 -2 -25 39 -51 91 -26 52 -45 95 -42 95 3 0 25 -41
51 -91z m6759 81 c3 -6 -1 -7 -9 -4 -18 7 -21 14 -7 14 6 0 13 -4 16 -10z m65
-30 c8 -5 11 -10 5 -10 -5 0 -17 5 -25 10 -8 5 -10 10 -5 10 6 0 17 -5 25 -10z
m-7371 -93 c44 -66 81 -129 68 -117 -12 12 -134 199 -126 194 5 -3 31 -38 58
-77z m6208 -50 c-2 -23 -3 -1 -3 48 0 50 1 68 3 42 2 -26 2 -67 0 -90z m2790
21 c-2 -13 -4 -3 -4 22 0 25 2 35 4 23 2 -13 2 -33 0 -45z m-1407 12 c33 -17
60 -33 60 -35 0 -5 -119 52 -129 61 -13 12 16 1 69 -26z m-7241 -125 c0 -5
-11 10 -24 35 -13 25 -24 50 -24 55 0 6 11 -10 24 -35 13 -25 24 -49 24 -55z
m275 5 c5 -17 4 -20 -2 -10 -5 8 -13 26 -16 40 -5 17 -4 20 2 10 5 -8 13 -26
16 -40z m8363 -22 c-2 -13 -4 -3 -4 22 0 25 2 35 4 23 2 -13 2 -33 0 -45z
m-5020 17 c55 -28 99 -80 109 -132 3 -18 -4 -274 -16 -570 l-23 -538 -44 -89
c-24 -48 -46 -86 -47 -85 -2 2 -35 49 -73 105 l-70 101 -57 524 c-64 578 -63
567 -3 636 36 41 97 72 143 73 16 0 53 -11 81 -25z m2250 -37 c-2 -13 -4 -5
-4 17 -1 22 1 32 4 23 2 -10 2 -28 0 -40z m-6112 1 c9 -17 15 -33 13 -35 -3
-2 -12 12 -21 31 -21 43 -13 47 8 4z m545 -24 c0 -5 -5 -3 -10 5 -5 8 -10 20
-10 25 0 6 5 3 10 -5 5 -8 10 -19 10 -25z m8327 -32 c-3 -10 -5 -2 -5 17 0 19
2 27 5 18 2 -10 2 -26 0 -35z m-2750 -10 c-3 -10 -5 -4 -5 12 0 17 2 24 5 18
2 -7 2 -21 0 -30z m-5539 -83 c0 -8 -6 1 -13 20 -7 19 -13 42 -13 50 0 8 6 -1
13 -20 7 -19 13 -42 13 -50z m7462 35 c36 -19 61 -34 55 -34 -5 0 -39 15 -75
34 -36 19 -60 34 -55 34 6 0 39 -15 75 -34z m817 3 c-3 -7 -5 -2 -5 12 0 14 2
19 5 13 2 -7 2 -19 0 -25z m-8807 -13 c0 -5 -5 -3 -10 5 -5 8 -10 20 -10 25 0
6 5 3 10 -5 5 -8 10 -19 10 -25z m6077 3 c-3 -7 -5 -2 -5 12 0 14 2 19 5 13 2
-7 2 -19 0 -25z m2720 -30 c-3 -8 -6 -5 -6 6 -1 11 2 17 5 13 3 -3 4 -12 1
-19z m-8773 -38 c5 -17 4 -20 -2 -10 -5 8 -13 26 -16 40 -5 17 -4 20 2 10 5
-8 13 -26 16 -40z m6063 28 c-3 -8 -6 -5 -6 6 -1 11 2 17 5 13 3 -3 4 -12 1
-19z m-5550 -30 c-3 -8 -6 -5 -6 6 -1 11 2 17 5 13 3 -3 4 -12 1 -19z m8250 0
c-3 -8 -6 -5 -6 6 -1 11 2 17 5 13 3 -3 4 -12 1 -19z m-2690 -10 c-3 -8 -6 -5
-6 6 -1 11 2 17 5 13 3 -3 4 -12 1 -19z m-5820 -10 c-3 -8 -6 -5 -6 6 -1 11 2
17 5 13 3 -3 4 -12 1 -19z m270 -20 c-3 -8 -6 -5 -6 6 -1 11 2 17 5 13 3 -3 4
-12 1 -19z m8218 -38 c-9 -28 -19 -50 -21 -48 -2 2 4 27 13 56 9 28 19 50 21
47 2 -2 -4 -27 -13 -55z m-8718 -2 c-3 -8 -6 -5 -6 6 -1 11 2 17 5 13 3 -3 4
-12 1 -19z m510 0 c-3 -8 -6 -5 -6 6 -1 11 2 17 5 13 3 -3 4 -12 1 -19z m7768
-8 c3 -6 -1 -7 -9 -4 -18 7 -21 14 -7 14 6 0 13 -4 16 -10z m-5702 -61 c58
-62 129 -206 151 -305 21 -96 34 -253 41 -519 8 -250 15 -242 -80 -85 -147
242 -270 537 -305 729 -16 88 0 149 51 203 32 34 42 39 66 34 15 -4 49 -29 76
-57z m-2056 19 c-3 -7 -5 -2 -5 12 0 14 2 19 5 13 2 -7 2 -19 0 -25z m5583
-23 c0 -5 -5 -3 -10 5 -5 8 -10 20 -10 25 0 6 5 3 10 -5 5 -8 10 -19 10 -25z
m-6083 3 c-3 -8 -6 -5 -6 6 -1 11 2 17 5 13 3 -3 4 -12 1 -19z m8664 -15 c-12
-20 -14 -14 -5 12 4 9 9 14 11 11 3 -2 0 -13 -6 -23z m-8154 -20 c-3 -10 -5
-4 -5 12 0 17 2 24 5 18 2 -7 2 -21 0 -30z m4489 22 c34 -23 48 -93 41 -203
-10 -173 -61 -289 -287 -657 -137 -223 -129 -210 -133 -204 -8 9 13 327 28
432 33 226 108 484 162 556 57 76 141 110 189 76z m-4749 -17 c-3 -8 -6 -5 -6
6 -1 11 2 17 5 13 3 -3 4 -12 1 -19z m8293 -53 c0 -3 -31 11 -70 30 -38 19
-70 38 -70 40 0 3 32 -11 70 -30 39 -19 70 -38 70 -40z m-8533 33 c-3 -7 -5
-2 -5 12 0 14 2 19 5 13 2 -7 2 -19 0 -25z m6102 -23 c0 -5 -6 1 -14 15 -8 14
-14 30 -14 35 0 6 6 -1 14 -15 8 -14 14 -29 14 -35z m2512 -34 c-17 -34 -33
-61 -36 -61 -3 0 10 29 27 65 18 35 34 63 36 61 2 -2 -11 -31 -27 -65z m-8364
17 c-3 -7 -5 -2 -5 12 0 14 2 19 5 13 2 -7 2 -19 0 -25z m260 -15 c-3 -10 -5
-2 -5 17 0 19 2 27 5 18 2 -10 2 -26 0 -35z m-500 5 c-3 -7 -5 -2 -5 12 0 14
2 19 5 13 2 -7 2 -19 0 -25z m10 -55 c-3 -10 -5 -4 -5 12 0 17 2 24 5 18 2 -7
2 -21 0 -30z m500 -35 c-2 -13 -4 -5 -4 17 -1 22 1 32 4 23 2 -10 2 -28 0 -40z
m5652 -13 c13 -22 15 -31 6 -20 -18 22 -53 86 -38 70 6 -5 20 -28 32 -50z
m2526 37 c-3 -3 -11 0 -18 7 -9 10 -8 11 6 5 10 -3 15 -9 12 -12z m-139 -40
c-22 -42 -129 -184 -157 -207 -13 -11 -4 3 20 30 24 28 66 85 94 128 54 81 67
96 43 49z m-8529 -44 c-2 -13 -4 -3 -4 22 0 25 2 35 4 23 2 -13 2 -33 0 -45z
m500 -215 c-1 -43 -3 -8 -3 77 0 85 2 120 3 78 2 -43 2 -113 0 -155z m-260
185 c-3 -8 -6 -5 -6 6 -1 11 2 17 5 13 3 -3 4 -12 1 -19z m3146 -20 c3 -24 18
-160 33 -303 l27 -260 105 -152 c58 -84 114 -155 125 -159 28 -9 46 15 120
156 l65 125 12 300 c6 165 13 302 15 304 8 8 218 -43 328 -80 158 -53 317
-127 317 -148 -1 -9 -7 -59 -15 -111 -8 -52 -20 -218 -27 -368 -12 -271 -12
-273 9 -293 14 -14 27 -19 41 -15 13 4 83 109 192 287 l172 279 39 -31 c212
-168 447 -425 610 -666 l49 -72 -104 -103 c-190 -190 -299 -395 -343 -643 -23
-136 -13 -376 21 -514 15 -57 25 -105 24 -106 -2 -2 -68 -24 -147 -49 -1010
-325 -2069 -293 -3058 90 -73 28 -93 40 -89 53 43 147 60 287 53 451 -11 269
-94 478 -278 696 l-78 91 35 103 c88 263 249 502 455 676 88 75 237 184 250
184 4 0 33 -53 63 -117 58 -119 183 -335 278 -478 46 -70 57 -80 86 -83 22 -2
34 2 38 13 7 17 -23 786 -33 841 l-5 31 80 22 c134 36 260 61 376 75 165 20
152 22 159 -26z m2862 -53 c27 -33 37 -50 23 -37 -14 13 -40 44 -58 70 -41 59
-27 45 35 -33z m2755 30 c36 -19 61 -34 55 -34 -5 0 -39 15 -75 34 -36 19 -60
34 -55 34 6 0 39 -15 75 -34z m-8993 -97 c-2 -24 -4 -7 -4 37 0 44 2 63 4 43
2 -21 2 -57 0 -80z m6343 -53 c30 -30 52 -55 49 -55 -2 0 -29 25 -59 55 -30
30 -52 55 -49 55 2 0 29 -25 59 -55z m1990 22 c0 -2 -12 -14 -27 -28 l-28 -24
24 28 c23 25 31 32 31 24z m-8103 -79 c-2 -13 -4 -5 -4 17 -1 22 1 32 4 23 2
-10 2 -28 0 -40z m-240 -40 c-2 -13 -4 -3 -4 22 0 25 2 35 4 23 2 -13 2 -33 0
-45z m8257 41 c-23 -26 -118 -99 -159 -123 -30 -17 -30 -17 -5 1 14 10 59 46
100 80 81 67 93 74 64 42z m-1814 -24 c13 -14 21 -25 18 -25 -2 0 -15 11 -28
25 -13 14 -21 25 -18 25 2 0 15 -11 28 -25z m-5953 -67 c-2 -13 -4 -5 -4 17
-1 22 1 32 4 23 2 -10 2 -28 0 -40z m6128 -61 c15 -15 -11 0 -77 45 -31 21
-60 42 -63 48 -6 10 121 -75 140 -93z m-6628 36 c-3 -10 -5 -2 -5 17 0 19 2
27 5 18 2 -10 2 -26 0 -35z m490 -60 c-3 -10 -5 -2 -5 17 0 19 2 27 5 18 2
-10 2 -26 0 -35z m-500 5 c-3 -7 -5 -2 -5 12 0 14 2 19 5 13 2 -7 2 -19 0 -25z
m8083 27 c0 -2 -10 -9 -22 -15 -22 -11 -22 -10 -4 4 21 17 26 19 26 11z
m-7843 -37 c-3 -7 -5 -2 -5 12 0 14 2 19 5 13 2 -7 2 -19 0 -25z m6559 -56
c-5 -4 -146 66 -146 73 0 3 34 -12 75 -32 41 -20 73 -39 71 -41z m1234 63 c0
-6 -97 -55 -107 -55 -4 1 17 14 47 30 61 32 60 32 60 25z m-8043 -47 c-3 -7
-5 -2 -5 12 0 14 2 19 5 13 2 -7 2 -19 0 -25z m500 -10 c-3 -7 -5 -2 -5 12 0
14 2 19 5 13 2 -7 2 -19 0 -25z m-260 0 c-3 -8 -6 -5 -6 6 -1 11 2 17 5 13 3
-3 4 -12 1 -19z m7653 -18 c-8 -5 -19 -10 -25 -10 -5 0 -3 5 5 10 8 5 20 10
25 10 6 0 3 -5 -5 -10z m-163 -56 c-3 -3 -12 -4 -19 -1 -8 3 -5 6 6 6 11 1 17
-2 13 -5z m-44 -11 c-7 -2 -19 -2 -25 0 -7 3 -2 5 12 5 14 0 19 -2 13 -5z
m-50 -10 c-7 -2 -19 -2 -25 0 -7 3 -2 5 12 5 14 0 19 -2 13 -5z m-50 -10 c-7
-2 -21 -2 -30 0 -10 3 -4 5 12 5 17 0 24 -2 18 -5z m-1556 -140 c-2 -21 -4 -4
-4 37 0 41 2 58 4 38 2 -21 2 -55 0 -75z m-5661 12 c254 -53 499 -170 749
-358 181 -137 457 -444 578 -644 58 -95 89 -228 90 -383 1 -197 -41 -366 -139
-562 -81 -161 -70 -177 196 -291 461 -196 1003 -331 1429 -355 239 -13 724 -7
881 12 426 50 819 147 1190 292 177 70 220 99 220 152 0 16 -25 77 -55 137
-93 182 -135 349 -135 533 0 169 13 222 81 337 131 219 273 398 473 593 223
217 430 361 659 458 164 69 277 95 438 101 162 6 246 -8 359 -63 365 -175 592
-708 640 -1505 42 -699 -200 -1406 -677 -1983 -148 -179 -139 -156 -114 -289
59 -316 86 -711 71 -1022 -33 -663 -205 -1196 -521 -1617 -85 -114 -325 -350
-434 -426 -351 -248 -740 -371 -1350 -427 -292 -27 -655 -36 -1482 -37 -822
-1 -1025 5 -1353 38 -871 88 -1430 377 -1876 970 -371 493 -574 1121 -614
1894 -9 193 -6 357 16 670 l6 95 -50 57 c-366 416 -609 937 -677 1453 -60 456
43 1088 246 1514 192 403 444 615 795 671 80 12 263 5 360 -15z m-1491 -945
c-3 -5 -14 -10 -23 -9 -14 0 -13 2 3 9 27 11 27 11 20 0z m-878 -6 c-3 -3 -12
-4 -19 -1 -8 3 -5 6 6 6 11 1 17 -2 13 -5z m40 -10 c-3 -3 -12 -4 -19 -1 -8 3
-5 6 6 6 11 1 17 -2 13 -5z m790 0 c-3 -3 -12 -4 -19 -1 -8 3 -5 6 6 6 11 1
17 -2 13 -5z m-750 -10 c-3 -3 -12 -4 -19 -1 -8 3 -5 6 6 6 11 1 17 -2 13 -5z
m706 -1 c-7 -2 -19 -2 -25 0 -7 3 -2 5 12 5 14 0 19 -2 13 -5z m-656 -9 c-3
-3 -12 -4 -19 -1 -8 3 -5 6 6 6 11 1 17 -2 13 -5z m606 -1 c-7 -2 -19 -2 -25
0 -7 3 -2 5 12 5 14 0 19 -2 13 -5z m-540 -10 c-7 -2 -21 -2 -30 0 -10 3 -4 5
12 5 17 0 24 -2 18 -5z m490 0 c-7 -2 -21 -2 -30 0 -10 3 -4 5 12 5 17 0 24
-2 18 -5z m-405 -10 c-10 -2 -28 -2 -40 0 -13 2 -5 4 17 4 22 1 32 -1 23 -4z
m330 0 c-10 -2 -28 -2 -40 0 -13 2 -5 4 17 4 22 1 32 -1 23 -4z m-140 -10
c-27 -2 -69 -2 -95 0 -27 2 -5 3 47 3 52 0 74 -1 48 -3z m-531 -169 c-3 -3
-12 -4 -19 -1 -8 3 -5 6 6 6 11 1 17 -2 13 -5z m40 -10 c-3 -3 -12 -4 -19 -1
-8 3 -5 6 6 6 11 1 17 -2 13 -5z m766 -31 c-7 -2 -19 -2 -25 0 -7 3 -2 5 12 5
14 0 19 -2 13 -5z m-555 -10 c-10 -2 -26 -2 -35 0 -10 3 -2 5 17 5 19 0 27 -2
18 -5z m500 0 c-10 -2 -26 -2 -35 0 -10 3 -2 5 17 5 19 0 27 -2 18 -5z m-240
-20 c-16 -2 -40 -2 -55 0 -16 2 -3 4 27 4 30 0 43 -2 28 -4z m10625 -100 l-43
-4 0 -479 0 -479 43 -4 c23 -2 4 -4 -43 -4 -47 0 -68 2 -47 4 l37 4 0 479 0
479 -37 4 c-21 2 0 4 47 4 47 0 66 -2 43 -4z m-11156 -89 c-3 -3 -12 -4 -19
-1 -8 3 -5 6 6 6 11 1 17 -2 13 -5z m46 -11 c-7 -2 -19 -2 -25 0 -7 3 -2 5 12
5 14 0 19 -2 13 -5z m50 -10 c-7 -2 -19 -2 -25 0 -7 3 -2 5 12 5 14 0 19 -2
13 -5z m50 -10 c-7 -2 -19 -2 -25 0 -7 3 -2 5 12 5 14 0 19 -2 13 -5z m70 -10
c-7 -2 -21 -2 -30 0 -10 3 -4 5 12 5 17 0 24 -2 18 -5z m610 0 c-7 -2 -21 -2
-30 0 -10 3 -4 5 12 5 17 0 24 -2 18 -5z m-525 -10 c-10 -2 -28 -2 -40 0 -13
2 -5 4 17 4 22 1 32 -1 23 -4z m450 0 c-10 -2 -28 -2 -40 0 -13 2 -5 4 17 4
22 1 32 -1 23 -4z m-165 -10 c-46 -2 -120 -2 -165 0 -46 1 -9 3 82 3 91 0 128
-2 83 -3z m3567 -453 c345 -132 779 -230 1205 -272 190 -18 664 -15 855 6 348
37 715 115 999 211 74 24 135 44 136 42 45 -96 49 -109 35 -117 -32 -20 -266
-102 -412 -144 -256 -74 -472 -117 -758 -153 -204 -25 -733 -25 -940 0 -318
38 -633 108 -915 202 -159 53 -402 148 -417 163 -4 4 2 34 15 65 26 69 11 69
197 -3z m-4017 -1627 l-43 -4 0 -479 0 -479 38 -4 c20 -2 1 -4 -43 -4 -44 0
-63 2 -42 4 l37 4 0 479 0 479 -42 4 c-24 2 -3 4 47 4 50 0 71 -2 48 -4z m124
-290 c-2 -21 -4 -4 -4 37 0 41 2 58 4 38 2 -21 2 -55 0 -75z m243 -18 c0 -3
-27 8 -60 25 -33 17 -60 33 -60 35 0 3 27 -8 60 -25 33 -17 60 -33 60 -35z
m200 -95 c30 -16 51 -29 45 -29 -5 0 -35 13 -65 29 -30 16 -50 29 -45 29 6 0
35 -13 65 -29z m-443 -157 c-2 -21 -4 -6 -4 32 0 39 2 55 4 38 2 -18 2 -50 0
-70z m6 -203 c3 -11 1 -20 -4 -20 -5 0 -9 9 -9 20 0 11 2 20 4 20 2 0 6 -9 9
-20z m8773 -2320 c18 -26 24 -47 20 -62 -9 -36 -139 -193 -255 -308 -116 -115
-244 -215 -349 -274 -427 -239 -1134 -360 -2349 -402 l-192 -7 -5 24 c-8 38
-26 130 -26 133 0 2 163 6 363 10 1070 20 1534 93 1992 316 265 129 488 299
677 515 45 52 86 95 90 95 4 0 20 -18 34 -40z m1557 33 c-24 -2 -62 -2 -85 0
-24 2 -5 4 42 4 47 0 66 -2 43 -4z m-8207 -92 c23 -10 81 -56 130 -101 372
-343 806 -546 1375 -645 347 -59 586 -75 1286 -82 l573 -6 10 -36 c5 -20 12
-55 16 -77 l6 -42 -108 -7 c-212 -15 -1000 9 -1379 41 -783 66 -1245 193
-1664 459 -213 135 -479 344 -480 378 -1 23 22 67 45 89 56 50 121 60 190 29z
m3400 -1255 c-3 -46 -10 -95 -15 -108 -6 -12 -10 -20 -10 -17 -1 4 -10 51 -21
104 -11 53 -20 99 -20 101 0 2 16 4 36 4 l37 0 -7 -84z m-669 -152 c43 -25 76
-69 88 -116 l7 -28 257 0 c141 0 407 -3 591 -6 l335 -7 14 33 c18 43 76 101
126 125 59 29 181 27 259 -4 74 -29 156 -105 156 -144 0 -32 0 -32 -49 -7 -59
29 -110 35 -156 16 -78 -33 -115 -92 -115 -184 0 -105 52 -154 187 -176 l78
-13 -60 -29 c-54 -26 -70 -29 -160 -29 -91 0 -104 2 -147 28 -44 25 -108 101
-108 126 0 8 -181 11 -600 11 -345 0 -600 -4 -600 -9 0 -5 -21 -32 -46 -60
-85 -95 -205 -133 -301 -96 -71 27 -173 130 -173 175 0 15 55 12 97 -5 76 -32
152 -11 207 58 26 32 31 48 34 105 2 54 -1 73 -17 99 -32 51 -52 60 -186 89
-30 7 -30 7 25 32 121 57 181 60 257 16z m5476 -611 c-24 -2 -62 -2 -85 0 -24
2 -5 4 42 4 47 0 66 -2 43 -4z"/>
<path d="M5663 8546 c-188 -62 -278 -251 -290 -611 -7 -236 16 -330 108 -430
113 -123 376 -153 533 -61 104 61 156 163 164 317 5 115 -11 181 -62 251 -90
121 -316 156 -430 66 l-38 -31 7 54 c16 117 45 178 96 205 59 30 130 -5 148
-72 7 -29 8 -29 122 -40 63 -7 127 -12 143 -13 l29 -1 -7 62 c-13 127 -88 234
-200 284 -52 24 -76 28 -171 31 -74 2 -124 -2 -152 -11z m167 -661 c43 -22 60
-53 60 -110 0 -57 -17 -88 -60 -110 -37 -19 -60 -19 -110 1 -47 19 -70 55 -70
109 0 97 94 155 180 110z"/>
<path d="M7700 5335 c-98 -22 -206 -62 -300 -111 -95 -51 -233 -147 -261 -183
-49 -62 -2 -161 76 -161 30 0 53 12 115 58 276 209 562 268 775 160 45 -23 93
-69 191 -182 25 -29 38 -36 68 -36 48 0 72 13 91 50 22 43 19 70 -15 124 -77
120 -198 215 -337 263 -66 22 -98 27 -208 29 -87 3 -151 -1 -195 -11z"/>
<path d="M3501 5205 c-160 -35 -336 -116 -470 -215 -120 -89 -142 -130 -106
-200 19 -37 43 -50 93 -50 31 0 51 10 108 54 100 77 215 140 324 178 88 30
105 33 220 32 105 0 134 -3 180 -22 70 -28 145 -85 187 -142 65 -88 80 -100
129 -100 62 0 104 40 104 98 0 83 -145 247 -274 311 -138 68 -336 90 -495 56z"/>
<path d="M5462 4780 c-140 -18 -337 -61 -442 -97 -126 -42 -160 -59 -160 -78
0 -24 17 -26 64 -5 112 47 322 110 441 131 155 27 441 32 595 10 125 -17 331
-70 448 -115 105 -40 112 -42 112 -22 0 30 -282 122 -480 157 -131 24 -455 34
-578 19z"/>
<path d="M5300 4534 c-14 -2 -65 -9 -115 -15 -142 -18 -236 -62 -270 -129 -21
-40 -19 -126 4 -176 30 -65 116 -178 183 -238 103 -93 262 -157 449 -181 l47
-6 -20 -92 c-46 -216 -151 -411 -295 -548 -184 -175 -325 -225 -922 -324 -418
-68 -570 -76 -766 -38 -143 27 -310 99 -445 189 -135 90 -325 296 -425 460
-27 44 -57 89 -68 102 -42 46 -117 14 -117 -49 0 -36 71 -159 156 -271 57 -75
242 -268 257 -268 4 0 31 -18 59 -41 148 -116 355 -211 560 -255 101 -22 385
-25 523 -6 292 41 704 117 835 153 279 78 489 241 638 494 41 69 102 211 102
236 0 25 16 -6 34 -66 56 -186 180 -353 349 -467 75 -51 277 -148 381 -182
215 -71 589 -108 1101 -109 264 0 368 13 532 68 310 104 463 253 534 520 37
141 27 428 -18 477 -40 45 -120 4 -109 -55 4 -18 9 -91 13 -163 4 -104 2 -148
-11 -208 -38 -168 -135 -297 -283 -373 -108 -56 -243 -100 -359 -118 -226 -34
-935 -7 -1199 46 -185 37 -441 151 -563 250 -163 132 -262 331 -279 560 l-6
86 80 16 c122 24 235 72 350 149 177 118 293 254 293 342 0 130 -189 201 -605
226 -159 9 -549 12 -605 4z"/>
<path d="M6990 3912 c-134 -67 -88 -252 64 -252 43 0 53 4 87 39 35 34 39 44
39 87 0 61 -25 105 -73 127 -45 22 -73 21 -117 -1z"/>
<path d="M7538 3874 c-79 -42 -57 -159 34 -179 116 -26 197 87 119 166 -25 24
-37 29 -78 29 -26 -1 -60 -7 -75 -16z"/>
<path d="M4392 3840 c-84 -52 -79 -176 10 -230 57 -35 148 -18 182 34 38 59
23 153 -32 196 -34 27 -115 27 -160 0z"/>
<path d="M3605 3786 c-53 -24 -78 -60 -83 -118 -7 -90 47 -148 138 -148 177 0
189 256 13 276 -21 2 -51 -2 -68 -10z"/>
<path d="M7345 3552 c-81 -14 -121 -97 -74 -155 47 -61 161 -58 199 6 11 18
20 40 20 50 0 25 -30 75 -49 83 -30 12 -76 20 -96 16z"/>
<path d="M3933 3476 c-36 -17 -73 -69 -73 -104 0 -37 28 -86 59 -105 86 -51
191 18 178 115 -11 80 -92 126 -164 94z"/>
</g>
</svg>
