<?xml version="1.0" standalone="no"?>
<!DOCTYPE svg PUBLIC "-//W3C//DTD SVG 20010904//EN"
 "http://www.w3.org/TR/2001/REC-SVG-20010904/DTD/svg10.dtd">
<svg version="1.0" xmlns="http://www.w3.org/2000/svg"
 width="1344.000000pt" height="1344.000000pt" viewBox="0 0 1344.000000 1344.000000"
 preserveAspectRatio="xMidYMid meet">
<metadata>
Created by potrace 1.11, written by Peter Selinger 2001-2013
</metadata>
<g transform="translate(0.000000,1344.000000) scale(0.100000,-0.100000)"
fill="#000000" stroke="none">
<path d="M10452 13415 c-18 -40 -86 -128 -144 -188 -54 -55 -203 -177 -217
-177 -4 0 -16 -8 -27 -17 -11 -10 -29 -23 -40 -30 -98 -61 -151 -91 -159 -93
-5 -1 -17 -7 -25 -14 -8 -7 -37 -24 -65 -37 -27 -13 -51 -27 -53 -31 -2 -5
-12 -8 -23 -8 -10 0 -19 -4 -19 -10 0 -5 -6 -10 -13 -10 -6 0 -33 -11 -60 -25
-26 -14 -47 -22 -47 -18 0 5 -4 3 -8 -2 -7 -10 -167 -86 -232 -110 -52 -19
-70 -28 -70 -34 0 -4 -6 -8 -13 -8 -8 0 -65 -21 -128 -48 -63 -26 -118 -48
-124 -49 -5 -1 -35 -13 -66 -28 -30 -14 -73 -31 -95 -38 -21 -7 -49 -19 -61
-27 -12 -8 -23 -14 -25 -13 -2 1 -20 -5 -42 -14 -21 -9 -40 -16 -42 -16 -2 0
-23 -9 -47 -20 -23 -10 -78 -33 -122 -50 -44 -18 -96 -38 -115 -47 -19 -8 -44
-19 -55 -23 -11 -5 -42 -19 -70 -31 -27 -13 -52 -24 -55 -25 -10 -2 -87 -37
-190 -87 -126 -60 -110 -53 -137 -62 -13 -4 -23 -11 -23 -16 0 -5 -6 -9 -12
-9 -7 0 -53 -23 -103 -51 -49 -28 -137 -75 -195 -106 -58 -30 -152 -87 -210
-126 -88 -59 -132 -91 -245 -180 -5 -4 -25 -21 -44 -37 -19 -17 -38 -30 -43
-30 -4 0 -8 -7 -8 -15 0 -8 -4 -15 -9 -15 -19 0 -231 -224 -309 -327 -20 -26
-41 -53 -47 -60 -30 -36 -35 -43 -35 -53 0 -5 -4 -10 -10 -10 -5 0 -10 -7 -10
-15 0 -8 -3 -15 -8 -15 -4 0 -18 -20 -32 -45 -14 -25 -28 -45 -32 -45 -5 0 -8
-7 -8 -15 0 -8 -4 -15 -10 -15 -5 0 -10 -9 -10 -20 0 -11 -3 -20 -8 -20 -4 0
-18 -24 -32 -52 -13 -29 -27 -55 -31 -58 -31 -23 -199 -453 -223 -570 -3 -14
-12 -52 -21 -85 -18 -71 -24 -98 -30 -145 -3 -19 -8 -46 -11 -60 -18 -76 -34
-228 -38 -340 -1 -30 -5 -60 -9 -67 -4 -6 -3 -13 3 -15 7 -2 7 -14 1 -35 -6
-19 -6 -35 -1 -38 6 -3 6 -15 0 -29 -5 -15 -5 -27 3 -35 7 -7 8 -11 0 -11 -7
0 -8 -14 -3 -40 4 -22 3 -43 -1 -46 -5 -3 -6 -10 -2 -17 3 -6 8 -43 10 -81 5
-110 19 -268 28 -316 3 -14 8 -45 11 -70 3 -25 7 -56 10 -70 3 -14 9 -47 14
-75 19 -107 42 -221 47 -235 4 -8 7 -22 8 -30 1 -8 5 -22 8 -30 4 -8 8 -26 11
-40 2 -14 9 -45 16 -70 7 -25 14 -52 15 -60 2 -8 18 -58 35 -110 17 -52 33
-108 36 -125 3 -16 8 -32 12 -35 4 -3 8 -12 10 -20 5 -28 95 -275 105 -290 8
-11 8 -12 0 -5 -7 6 -50 84 -96 175 -47 91 -109 208 -139 261 -30 52 -57 102
-61 110 -4 8 -37 64 -75 124 -37 61 -74 121 -82 135 -8 14 -17 27 -20 30 -3 3
-25 36 -50 74 -24 38 -49 74 -55 80 -5 6 -30 41 -55 79 -24 37 -47 67 -51 67
-4 0 -10 8 -13 18 -3 10 -22 35 -41 55 -19 20 -32 37 -27 37 4 0 3 4 -3 8 -5
4 -34 36 -64 72 -143 170 -340 364 -486 476 -41 32 -75 62 -75 66 0 4 -6 8
-14 8 -8 0 -21 6 -28 13 -21 20 -178 122 -244 157 -152 82 -327 164 -341 161
-2 -1 -27 10 -55 22 -58 26 -442 149 -500 161 -7 2 -20 5 -28 8 -47 17 -200
58 -216 58 -11 0 -24 4 -30 9 -8 9 -20 12 -89 27 -11 2 -60 15 -110 29 -112
32 -197 56 -210 59 -5 1 -19 5 -30 9 -11 3 -31 8 -45 11 -14 3 -68 17 -120 31
-52 15 -102 29 -110 31 -8 1 -30 7 -47 13 -18 5 -33 8 -33 5 0 -3 -8 0 -18 5
-11 6 -30 12 -43 15 -13 3 -39 9 -56 15 -18 5 -33 7 -33 4 0 -3 -7 0 -15 7 -8
7 -15 10 -15 6 0 -3 -11 -1 -25 4 -14 5 -36 12 -48 14 -12 2 -87 21 -167 42
-80 20 -153 37 -162 38 -10 0 -18 4 -18 9 0 4 -6 7 -12 6 -7 -1 -25 1 -39 5
-14 4 -32 8 -40 10 -15 3 -62 15 -91 22 -15 5 -17 -3 -13 -73 2 -43 5 -78 5
-78 4 0 9 -45 14 -137 4 -57 9 -121 11 -143 3 -22 8 -76 11 -120 3 -44 7 -100
9 -125 2 -25 6 -74 9 -110 3 -36 8 -87 11 -115 4 -27 8 -70 10 -95 6 -72 15
-163 20 -190 2 -14 7 -53 10 -88 4 -35 8 -73 11 -85 4 -23 10 -69 18 -147 3
-25 8 -58 11 -75 4 -16 8 -46 10 -65 2 -19 6 -46 9 -60 3 -14 8 -41 10 -60 2
-20 7 -47 10 -60 3 -14 8 -41 11 -60 8 -56 56 -290 81 -395 3 -11 7 -31 10
-45 2 -14 7 -32 11 -40 3 -8 7 -24 9 -35 5 -30 12 -60 14 -60 1 0 3 -8 5 -18
2 -10 7 -26 11 -35 4 -9 9 -26 11 -37 2 -11 8 -31 13 -45 5 -14 11 -34 13 -45
1 -11 6 -25 9 -31 4 -6 9 -21 12 -35 6 -32 82 -243 97 -272 7 -12 12 -24 12
-27 -1 -5 3 -14 27 -75 4 -11 7 -22 7 -25 -1 -3 6 -18 15 -35 10 -16 48 -93
86 -170 68 -137 161 -299 208 -362 13 -17 24 -35 24 -38 0 -4 6 -12 12 -19 7
-8 20 -24 28 -36 28 -42 149 -192 185 -228 19 -20 35 -40 35 -44 0 -4 7 -8 17
-8 9 0 14 -3 10 -6 -8 -9 179 -182 253 -234 19 -13 46 -35 60 -47 14 -13 33
-26 42 -29 10 -3 18 -10 18 -15 0 -5 7 -9 15 -9 8 0 15 -4 15 -10 0 -5 5 -10
11 -10 6 0 38 -18 71 -40 33 -22 67 -40 74 -40 8 0 14 -3 14 -8 0 -7 139 -76
260 -130 103 -45 395 -136 509 -157 88 -17 264 -45 311 -50 30 -3 72 -8 93
-11 21 -3 89 -7 150 -9 62 -3 112 -5 112 -5 0 -1 15 -2 33 -3 17 -1 32 2 32 6
0 5 6 5 13 0 6 -4 64 -8 127 -9 159 -3 378 -16 465 -28 17 -2 53 -7 80 -11 28
-3 59 -9 70 -13 23 -7 29 -8 73 -16 41 -8 181 -53 204 -66 10 -6 25 -10 33
-10 8 0 15 -4 15 -10 0 -5 6 -10 13 -10 14 0 82 -45 141 -93 68 -56 161 -203
168 -267 0 -3 4 -15 9 -26 4 -12 11 -42 15 -65 8 -50 12 -289 5 -303 -2 -5 -6
-30 -7 -55 -1 -25 -5 -59 -9 -76 -3 -16 -8 -43 -11 -60 -11 -68 -45 -223 -58
-265 -7 -25 -14 -48 -15 -52 0 -5 -1 -9 -2 -10 -3 -10 -11 -46 -14 -63 -2 -11
-8 -32 -14 -47 -6 -16 -8 -28 -6 -28 3 0 -1 -17 -9 -37 -15 -41 -74 -255 -82
-299 -3 -15 -7 -31 -10 -36 -3 -5 -7 -21 -10 -36 -2 -15 -9 -38 -14 -52 -5
-14 -12 -36 -15 -50 -4 -23 -20 -80 -71 -265 -9 -33 -18 -68 -19 -78 -2 -9 -6
-21 -9 -25 -3 -5 -7 -20 -9 -33 -3 -14 -14 -57 -26 -96 -19 -65 -24 -71 -53
-77 -40 -8 -138 -56 -138 -67 0 -5 -5 -9 -11 -9 -12 0 -100 -92 -94 -98 2 -3
-2 -11 -10 -19 -27 -27 -54 -136 -51 -209 5 -102 19 -148 70 -224 115 -172
354 -229 536 -127 55 30 108 76 115 98 4 10 10 17 15 14 4 -3 11 6 14 20 4 14
11 25 16 25 6 0 10 4 10 9 0 5 5 22 12 38 20 49 21 56 24 144 1 48 -2 104 -9
125 -12 42 -68 144 -92 168 -12 12 -13 20 -4 43 6 15 12 35 14 43 3 8 11 38
19 67 7 28 11 54 8 57 -3 3 -1 6 5 6 5 0 10 6 11 13 3 34 12 79 19 90 4 6 8
19 10 27 1 8 21 83 44 165 22 83 42 157 43 165 1 9 5 21 10 28 4 6 4 12 0 12
-3 0 -1 7 6 15 7 8 10 15 6 15 -3 0 -1 11 4 25 5 14 12 36 14 48 2 12 14 56
26 97 11 41 23 83 26 92 2 10 6 26 9 35 2 10 9 38 16 63 6 25 13 52 16 60 3 8
8 24 10 35 2 11 13 49 24 85 11 35 54 186 95 335 42 148 76 275 78 280 2 6 6
28 11 50 4 22 11 45 15 50 5 6 10 24 13 40 2 17 7 37 10 45 3 8 17 58 31 110
14 52 41 154 61 225 20 72 37 139 39 150 2 11 4 20 5 20 2 0 4 7 6 15 10 37
25 92 49 180 15 52 29 106 32 120 2 14 7 32 10 40 5 13 84 299 109 395 5 17 8
33 7 38 -1 4 3 7 9 7 5 0 8 4 5 8 -3 5 3 36 14 70 10 34 16 62 13 62 -3 0 -1
6 5 13 6 7 13 26 16 42 2 17 5 30 6 30 2 0 7 19 14 56 4 19 -1 34 -20 55 -85
97 -116 173 -118 289 -4 239 179 418 422 412 74 -2 97 -7 154 -34 147 -69 237
-207 241 -370 0 -38 -2 -73 -5 -78 -3 -6 -9 -26 -13 -45 -12 -58 -40 -103
-103 -167 -51 -52 -106 -88 -149 -97 -17 -4 -37 -14 -43 -21 -10 -12 -76 -241
-95 -330 -3 -11 -19 -69 -35 -130 -17 -60 -33 -119 -35 -130 -3 -11 -13 -50
-24 -87 -11 -36 -17 -69 -13 -72 3 -3 1 -6 -5 -6 -5 0 -10 -6 -11 -12 -3 -40
-21 -117 -31 -133 -3 -5 -6 -14 -7 -20 -3 -17 -56 -219 -62 -235 -3 -8 -6 -19
-7 -25 -1 -5 -3 -12 -4 -15 -3 -6 -8 -28 -16 -62 -3 -15 -9 -38 -15 -52 -5
-13 -6 -27 -3 -30 4 -3 1 -6 -6 -6 -7 0 -10 -4 -7 -8 4 -8 -8 -58 -45 -182 -6
-19 -12 -44 -14 -55 -2 -11 -4 -20 -5 -20 -1 0 -3 -7 -5 -15 -1 -8 -10 -42
-19 -75 -9 -33 -18 -67 -20 -75 -2 -8 -16 -58 -30 -110 -15 -52 -29 -102 -30
-110 -9 -39 -28 -107 -33 -120 -3 -8 -7 -22 -8 -30 -1 -8 -8 -35 -15 -60 -6
-25 -14 -52 -15 -60 -2 -8 -13 -46 -24 -85 -11 -38 -18 -73 -15 -76 2 -4 0
-10 -5 -13 -5 -3 -12 -23 -16 -43 -5 -21 -9 -42 -11 -48 -1 -5 -13 -48 -25
-95 -12 -47 -26 -87 -31 -88 -4 -2 -6 -8 -3 -13 3 -5 0 -28 -6 -51 -7 -24 -13
-47 -15 -53 -1 -5 -12 -46 -24 -90 -22 -82 -27 -102 -36 -144 -3 -13 -9 -32
-15 -43 -5 -10 -7 -18 -5 -18 3 0 1 -11 -4 -25 -5 -14 -12 -36 -14 -48 -2 -12
-14 -56 -26 -97 -12 -41 -23 -82 -24 -90 -1 -8 -8 -35 -15 -60 -7 -25 -14 -52
-16 -60 -2 -8 -10 -42 -19 -75 -9 -33 -18 -67 -21 -75 -6 -27 -103 -394 -125
-475 -23 -85 -41 -153 -44 -170 -1 -5 -5 -16 -10 -23 -4 -7 -5 -16 -2 -19 3
-3 1 -12 -5 -20 -6 -7 -8 -13 -5 -13 4 0 2 -8 -3 -17 -5 -10 -11 -32 -14 -50
-3 -17 -8 -36 -11 -41 -3 -4 -7 -19 -10 -33 -10 -46 -14 -64 -27 -109 -7 -25
-13 -49 -15 -55 -1 -5 -8 -30 -15 -55 -7 -25 -13 -47 -14 -50 0 -3 -5 -23 -10
-45 -10 -47 -12 -54 -15 -57 -1 -2 -3 -10 -5 -18 -2 -8 -6 -24 -9 -35 -12 -45
-45 -174 -60 -235 -9 -36 -19 -72 -23 -80 -3 -8 -7 -22 -9 -31 -2 -9 -17 -68
-34 -131 -16 -64 -30 -118 -30 -122 0 -4 -3 -5 -8 -3 -4 3 -25 -3 -46 -14 -22
-10 -43 -19 -48 -19 -24 0 -141 -117 -166 -167 -34 -65 -49 -135 -46 -208 3
-70 5 -83 18 -120 48 -135 179 -250 306 -270 77 -13 103 -12 165 1 84 19 81
19 97 32 8 6 18 9 21 5 4 -3 7 -1 7 5 0 7 6 12 13 12 18 0 89 70 125 124 101
149 83 364 -41 499 l-35 38 19 67 c11 37 21 76 24 87 2 11 11 45 20 75 9 30
17 64 19 75 2 11 4 20 5 20 2 0 4 11 7 24 2 14 9 30 14 36 5 7 8 14 5 17 -3 2
6 42 19 89 30 107 40 141 41 154 1 6 5 17 8 25 3 8 13 44 22 80 20 82 19 76
55 202 16 59 32 118 34 130 3 13 5 23 6 23 2 0 8 27 15 60 3 11 29 110 60 220
31 110 57 207 58 215 1 8 6 21 10 28 5 6 6 12 3 12 -3 0 -1 11 4 25 5 14 12
36 14 48 3 12 13 49 22 82 9 33 18 67 19 75 2 8 4 15 5 15 1 0 3 7 5 16 1 9
14 57 28 105 23 84 37 136 42 159 2 6 12 45 24 87 35 125 71 261 77 288 2 14
9 36 14 50 5 14 26 93 48 175 22 83 57 213 77 290 21 77 38 147 39 155 0 8 3
17 6 20 3 3 15 41 27 85 12 44 29 105 38 135 9 30 18 62 20 70 2 8 20 60 40
115 20 55 38 108 40 118 2 9 7 23 12 30 4 6 8 14 8 17 0 3 15 39 33 81 52 126
55 134 54 142 -1 4 3 7 10 7 6 0 9 3 5 6 -3 4 5 26 18 50 14 24 22 44 19 44
-3 0 4 13 15 29 12 16 21 32 21 35 0 8 53 116 94 191 18 33 45 85 61 115 16
30 32 57 36 60 3 3 16 23 28 45 36 68 54 96 125 205 39 58 74 108 79 111 5 3
8 9 7 13 -1 4 8 19 19 34 83 108 161 215 162 223 3 19 5 24 12 37 5 6 6 16 2
21 -3 5 -1 12 4 15 5 4 12 25 16 49 4 23 12 53 18 67 5 14 11 34 13 45 2 17
14 60 65 245 10 37 15 55 25 105 3 17 9 35 13 40 3 6 6 12 6 15 3 19 21 88 42
165 14 50 27 100 29 112 2 12 9 34 14 49 6 14 8 30 4 35 -3 5 0 9 6 9 6 0 9 4
5 9 -3 5 -1 12 4 16 6 3 8 12 4 20 -3 8 -1 15 3 15 5 0 10 10 10 23 1 12 22
96 47 187 54 199 50 182 48 200 -1 13 -76 15 -615 14 l-615 -1 4 26 c2 14 11
51 20 81 9 30 18 64 20 75 3 11 21 76 40 145 20 69 37 132 39 140 2 8 12 44
21 80 9 36 18 70 19 75 2 6 8 30 15 55 8 25 15 52 16 60 2 8 4 15 5 15 1 0 3
7 5 15 1 8 28 110 60 225 31 116 58 217 60 225 2 8 15 55 29 104 14 49 23 93
20 97 -3 5 0 9 5 9 6 0 11 11 11 23 0 13 3 27 7 31 4 3 7 14 8 24 1 9 17 71
35 137 18 66 34 127 35 135 1 8 5 22 8 30 5 14 27 90 33 115 7 32 37 144 45
170 16 52 70 249 74 270 1 11 5 27 9 35 3 8 8 26 10 40 3 14 12 50 21 80 41
140 41 128 8 163 -28 30 -89 119 -85 125 1 1 -4 18 -13 37 -10 25 -13 64 -11
128 2 78 7 102 33 157 38 80 100 147 176 190 31 17 57 29 57 26 0 -3 15 1 33
8 17 8 65 14 106 14 186 0 321 -100 398 -298 11 -27 14 -189 4 -205 -3 -5 -6
-17 -8 -25 -4 -26 -36 -90 -45 -90 -5 0 -7 -4 -4 -9 4 -5 -19 -34 -49 -64 -54
-54 -144 -107 -180 -107 -10 0 -16 -2 -13 -5 3 -3 -5 -40 -18 -82 -13 -42 -21
-80 -18 -84 3 -5 0 -9 -7 -9 -7 0 -10 -3 -7 -6 3 -3 -2 -32 -12 -65 -10 -32
-16 -59 -13 -59 3 0 0 -7 -7 -15 -7 -9 -10 -18 -7 -22 4 -3 2 -12 -5 -20 -6
-7 -8 -16 -5 -20 4 -3 3 -11 -2 -17 -5 -6 -12 -24 -15 -41 -3 -16 -12 -55 -21
-85 -9 -30 -18 -63 -20 -72 -2 -9 -13 -52 -26 -95 -12 -43 -22 -82 -23 -88 -1
-5 -5 -16 -9 -22 -5 -7 -6 -13 -3 -13 3 0 1 -11 -4 -25 -5 -14 -12 -36 -14
-48 -5 -26 -52 -199 -65 -242 -6 -16 -12 -41 -15 -55 -3 -14 -23 -92 -46 -175
-38 -138 -47 -172 -53 -200 -2 -5 -6 -16 -10 -22 -5 -7 -6 -13 -3 -13 3 0 1
-11 -4 -26 -6 -14 -12 -39 -15 -56 -3 -17 -9 -36 -12 -42 -4 -6 -8 -17 -9 -26
-3 -20 -9 -45 -25 -100 -14 -51 -17 -63 -23 -87 -3 -10 -5 -18 -6 -18 -1 0 -3
-7 -5 -15 -2 -8 -12 -49 -23 -90 -11 -41 -22 -82 -24 -90 -3 -13 48 -15 407
-17 226 0 417 1 426 3 9 2 16 10 17 17 1 18 25 113 66 257 85 305 102 376 92
382 -6 4 -8 8 -4 8 4 0 -6 14 -22 30 -36 37 -69 99 -85 162 -14 50 -13 177 1
200 5 7 10 21 11 31 6 36 41 95 91 152 33 38 111 87 157 100 17 4 37 10 45 13
8 3 51 6 95 6 122 3 196 -27 282 -112 89 -88 123 -164 125 -279 1 -94 -6 -128
-43 -200 -33 -64 -117 -155 -157 -167 -12 -4 -22 -12 -22 -17 0 -5 -3 -8 -7
-7 -5 1 -24 -3 -44 -10 -29 -10 -38 -20 -44 -45 -9 -39 -10 -40 -25 -97 -7
-25 -12 -46 -12 -47 1 -2 -4 -17 -9 -35 -6 -18 -12 -42 -15 -53 -3 -11 -6 -24
-8 -30 -1 -5 -5 -19 -9 -30 -3 -11 -8 -31 -11 -45 -3 -14 -19 -74 -36 -135
-17 -60 -33 -117 -34 -125 -2 -8 -9 -35 -16 -60 -7 -25 -14 -52 -15 -60 -2 -8
-4 -15 -5 -15 -1 0 -3 -7 -5 -15 -1 -8 -10 -42 -19 -75 -43 -152 -77 -283 -82
-310 -3 -16 -9 -37 -14 -45 -4 -8 -15 -49 -25 -90 -10 -41 -21 -82 -25 -90 -5
-8 -11 -32 -14 -53 -3 -21 -13 -60 -20 -85 -18 -56 -76 -269 -81 -295 -2 -10
-7 -27 -10 -38 -4 -10 -3 -19 2 -19 6 0 88 57 168 118 50 38 195 121 345 198
52 27 97 51 100 54 3 4 12 9 20 12 18 7 195 133 220 157 9 9 39 35 66 58 71
60 179 167 259 257 39 44 77 87 85 95 8 9 35 44 60 76 44 58 51 68 78 99 6 8
12 19 12 25 0 5 4 11 8 13 7 3 81 105 107 150 5 9 32 54 59 100 27 46 56 94
65 108 29 42 141 268 141 284 0 8 4 16 8 18 8 3 92 192 96 214 1 7 7 18 14 26
6 8 9 18 5 21 -3 4 -1 12 4 19 5 7 29 72 52 143 24 72 45 137 48 145 3 8 7 22
8 30 2 12 13 53 30 110 7 22 15 59 19 80 2 14 13 63 25 110 11 47 22 101 25
120 3 19 8 46 10 60 7 38 17 101 22 138 13 102 15 119 31 267 9 89 9 698 -1
790 -4 44 -9 103 -11 132 -2 28 -5 55 -8 60 -2 4 -5 22 -5 38 -1 17 -4 44 -6
60 -3 17 -8 50 -11 75 -4 25 -9 56 -11 70 -2 14 -7 42 -10 63 -7 44 -9 53 -17
87 -6 22 -10 44 -21 115 -2 11 -9 40 -16 65 -7 25 -14 56 -16 70 -3 14 -7 33
-10 42 -3 9 -7 25 -9 35 -3 10 -9 38 -15 63 -6 25 -13 52 -17 60 -3 8 -7 20
-8 25 -1 6 -3 12 -4 15 -5 10 -13 45 -18 77 -6 40 -14 36 -43 -19 -32 -64
-143 -162 -195 -174 -5 -1 -32 -9 -58 -17 -49 -16 -147 -17 -202 -2 -243 62
-378 339 -274 563 42 92 141 192 205 208 13 3 24 10 24 16 0 5 4 7 9 4 5 -3
22 -2 37 4 74 24 201 13 273 -24 37 -20 38 -14 9 50 -12 27 -22 51 -23 54 -1
14 -71 176 -139 323 -20 42 -36 82 -36 87 0 6 -4 10 -10 10 -6 0 -9 3 -8 8 5
15 -237 476 -270 515 -8 9 -11 17 -7 17 4 0 1 8 -8 18 -10 10 -15 21 -13 23 2
2 -4 12 -14 22 -16 16 -17 16 -28 -8z m-4048 -10809 c95 -56 117 -190 44 -268
-31 -33 -86 -61 -109 -55 -11 3 -19 2 -19 -3 0 -10 -57 3 -90 20 -37 19 -79
69 -89 107 -9 31 -8 56 4 108 6 28 60 87 93 101 47 21 121 17 166 -10z m281
-2060 c53 -40 70 -73 72 -135 3 -99 -62 -170 -163 -179 -115 -10 -204 90 -183
205 17 90 87 143 184 138 42 -2 63 -9 90 -29z"/>
<path d="M8798 10530 c-34 -6 -79 -30 -104 -54 -6 -6 -19 -32 -28 -58 -67
-174 151 -312 288 -182 20 19 34 34 32 34 -3 0 1 15 9 34 8 19 13 47 11 63 -6
47 -18 83 -27 83 -5 0 -9 5 -9 11 0 14 -25 34 -65 53 -42 20 -65 23 -107 16z"/>
<path d="M9582 8915 c-111 -49 -135 -203 -45 -294 8 -7 34 -21 60 -31 132 -50
257 66 229 215 -7 36 -60 97 -99 113 -37 16 -105 14 -145 -3z"/>
<path d="M7798 6908 c-39 -19 -89 -73 -96 -105 -27 -124 61 -235 179 -228 121
8 201 136 155 246 -38 91 -147 131 -238 87z"/>
</g>
</svg>
