<?xml version="1.0" encoding="utf-8"?>
<!-- Generator: Adobe Illustrator 22.0.1, SVG Export Plug-In . SVG Version: 6.00 Build 0)  -->
<svg version="1.1" id="Layer_1" xmlns="http://www.w3.org/2000/svg" xmlns:xlink="http://www.w3.org/1999/xlink" x="0px" y="0px"
	 viewBox="0 0 236.3 335.8" style="enable-background:new 0 0 236.3 335.8;" xml:space="preserve">
<g>
	<path style="fill: #e4464a" d="M191.5,121.5c2.5,0,4.4-2,4.4-4.5c0-2.5-2-4.4-4.4-4.4c-2.5,0-4.5,2-4.4,4.4C187,119.5,189,121.5,191.5,121.5z"/>
	<path style="fill: #e4464a" d="M151.4,167.1c0-2.5-2-4.4-4.4-4.4c-2.5,0-4.5,2-4.5,4.4c0,2.5,2,4.5,4.5,4.5C149.4,171.5,151.4,169.5,151.4,167.1z"/>
	<path style="fill: #e4464a" d="M230.3,41.6c-1.5,3.9-5.2,6.6-9.6,6.6c-5.7,0-10.3-4.6-10.3-10.3s4.6-10.3,10.3-10.3c1.9,0,3.8,0.5,5.3,1.5
		c-3.6-9.4-8.3-19.1-14.2-29.2c-8.3,16.9-49.3,25.5-72.2,39.4c0,0-61.1,26.6-28.3,110.2c-18.7-38.3-35.6-51.8-58-58.7
		C30.7,84,0,76.4,0,76.4C3.8,122.3,5.5,198,82.9,198c33.8,0,38.1,10.6,31.1,36.6l-8,29.6c-4.9,0.8-8.6,5-8.6,10.1
		c0,5.7,4.6,10.3,10.3,10.3c5.7,0,10.3-4.6,10.3-10.3c0-2.8-1.1-5.4-3-7.3l8.9-32.8l0.1,0l16.2-59.3c-2.3-1.9-3.8-4.8-3.8-8
		c0-5.7,4.6-10.3,10.3-10.3c5.7,0,10.3,4.6,10.3,10.3c0,4.9-3.4,9-8,10l-15.7,58.3l-21.2,80.2l0,0c-4.6,1.1-7.9,5.1-7.9,10
		c0,5.7,4.6,10.3,10.3,10.3c5.7,0,10.3-4.6,10.3-10.3c0-3.1-1.4-5.9-3.6-7.8l0,0l22.7-84.3c3.6-13.2,11.8-30.9,23.2-45.2l10-37.5
		l-21.1,0l-10,0l2.7-9.8l15.2-56.4l0,0c-2.2-1.9-3.6-4.6-3.6-7.7c0-5.7,4.6-10.3,10.3-10.3c5.7,0,10.3,4.6,10.3,10.3
		c0,4.8-3.2,8.7-7.6,9.9l0-0.2l-14.6,54.2l21.1,0l4.5-16.4l0,0.1c-2.1-1.9-3.4-4.5-3.4-7.6c0-5.7,4.6-10.3,10.3-10.3
		c5.7,0,10.3,4.6,10.3,10.3c0,4.8-3.3,8.9-7.8,10l0,0l-3.8,14.2l-2.7,10l-6.2,23.1c3.9-3.1,8-5.8,12.2-7.8
		C213.7,156.9,251,110.7,230.3,41.6z M108,278.9c-2.5,0-4.5-2-4.5-4.4c0-2.5,2-4.5,4.5-4.5c2.5,0,4.5,2,4.5,4.5
		S110.5,278.9,108,278.9z M114.7,330.1c-2.5,0-4.4-2-4.4-4.4c0-2.5,2-4.4,4.4-4.4c2.5,0,4.5,2,4.5,4.4
		C119.2,328.1,117.2,330.1,114.7,330.1z"/>
	<path style="fill: #e4464a" d="M175.3,77c0-2.5-2-4.4-4.5-4.4c-2.5,0-4.4,2-4.4,4.4c0,2.5,2,4.4,4.4,4.4C173.3,81.4,175.3,79.4,175.3,77z"/>
</g>
</svg>