<svg xmlns="http://www.w3.org/2000/svg" viewBox="0 0 1600 768"><defs><style>.cls-1{isolation:isolate;}.cls-2{fill:#fff;}.cls-3{fill:#f0649d;}.cls-3,.cls-4,.cls-5,.cls-6,.cls-7{mix-blend-mode:multiply;}.cls-4{fill:#fab383;}.cls-5{fill:#f7942f;}.cls-6{fill:#fdb924;}.cls-7{fill:#c8a68c;}.cls-8{fill:#c22c25;}.cls-9{fill:#e4454a;}.cls-10{fill:none;}</style></defs><title>Artboard 1</title><g class="cls-1"><g id="Layer_1" data-name="Layer 1"><path class="cls-2" d="M815.56,462.75a4.31,4.31,0,0,1-1.71-2.38l-7.47-26.78a4.54,4.54,0,0,1,2.23-.47,3.88,3.88,0,0,1,2.18.59,2.6,2.6,0,0,1,1.12,1.71L816.85,455l-.59,2.53.3.12L823,434.83a2.4,2.4,0,0,1,.88-1.24,2.92,2.92,0,0,1,3.18,0,2.34,2.34,0,0,1,.88,1.24l5.59,20.36-.7,2.53.35.12,5.77-22.42a2.59,2.59,0,0,1,1.11-1.71,3.88,3.88,0,0,1,2.18-.59,4.58,4.58,0,0,1,2.24.47L837,460.37a3.92,3.92,0,0,1-1.76,2.38,5.93,5.93,0,0,1-3.24.85l-7.06-25.42-.23.06.58,2.18-6.59,23.18A5.33,5.33,0,0,1,815.56,462.75Z"/><path class="cls-2" d="M850.86,427.65a3.53,3.53,0,0,1-1.12-2.65,3.43,3.43,0,0,1,1.12-2.62,4,4,0,0,1,2.77-1,3.85,3.85,0,0,1,2.7,1,3.4,3.4,0,0,1,1.12,2.62,3.49,3.49,0,0,1-1.12,2.65,3.75,3.75,0,0,1-2.7,1.06A3.87,3.87,0,0,1,850.86,427.65Zm.18,9.24A3.29,3.29,0,0,1,852.3,434a6.7,6.7,0,0,1,3.86-.91v26.72a3.29,3.29,0,0,1-1.27,2.85,6.59,6.59,0,0,1-3.85.91Z"/><path class="cls-2" d="M871.16,461.22A9.27,9.27,0,0,1,869.1,455V437.77h-5.47a4.67,4.67,0,0,1,.88-3.06,3,3,0,0,1,2.41-1.06h2.24v-5.59a3.27,3.27,0,0,1,1.27-2.85,6.44,6.44,0,0,1,3.79-.91v9.35h7.83q0,4.13-3.71,4.12h-4.06v17a5,5,0,0,0,.85,3.32,4,4,0,0,0,3.09,1,7.61,7.61,0,0,0,3.89-1.06,2.83,2.83,0,0,1,.76,2.06,3,3,0,0,1-1.47,2.47,6.71,6.71,0,0,1-4,1.06Q873.22,463.6,871.16,461.22Z"/><path class="cls-2" d="M889.05,425.71a4.07,4.07,0,0,1,1.29-3.24,5.76,5.76,0,0,1,3.83-1.12v15.48a17.87,17.87,0,0,0-1.3,1.65l.24.23a14.29,14.29,0,0,1,4.59-4,12,12,0,0,1,6-1.56A9.63,9.63,0,0,1,914,443.24v16.6a3.27,3.27,0,0,1-1.27,2.85,6.59,6.59,0,0,1-3.85.91V443.77a6.17,6.17,0,0,0-1.59-4.47,6.42,6.42,0,0,0-4.83-1.65,9.52,9.52,0,0,0-4.09.91,8.09,8.09,0,0,0-3.06,2.48,5.6,5.6,0,0,0-1.14,3.38v15.42a3.27,3.27,0,0,1-1.27,2.85,6.59,6.59,0,0,1-3.85.91Z"/><path class="cls-2" d="M1402.77,428c-17.58,2.84-26.56,15.83-26.56,38.68s12,38.37,30.32,38.37c8.54,0,16.3-2.84,32.62-10.84v18.6c-19.58,9-31.11,11.76-46.88,11.76-17.08,0-29.09-4.53-38.91-14.53-10-10.06-15.08-23.35-15.08-38.14,0-32.91,24.36-55.18,60-55.18,23.63,0,39.89,10.8,39.89,26.66,0,10.21-7.57,17.24-18.79,17.24-5.77,0-10.5-1.51-16.56-5Z"/><path class="cls-2" d="M1316,471.88c15.76-19.87,21.33-27.88,21.33-37.64s-7.71-17.54-18-17.54c-6.35,0-12.06,3-14.85,6.11v40.48l-25.83,34.41V419.25h-24.55l-40.82,67.67V419.25h-14.11l-37,9v9.47l20.21,2.05v83h26.12l39.15-64.33v64.33h28.61Z"/><path class="cls-2" d="M1084.11,510c2.78.13,4,.13,5.76.13,21,0,32.32-13.12,32.32-38.27,0-21.29-9.23-32.61-26.26-32.61a102.27,102.27,0,0,0-11.82,1.07Zm0,45.34,16.94,3.77v9.61H1034.6v-9.61l15.14-3.77V439.27h-16.83v-10L1073.56,417h10.55v13.86c19-11.32,25.58-13.33,35.35-13.33,22.56,0,39.2,20.8,39.2,49.6,0,33.3-22.21,55.7-57.21,55.7a161.8,161.8,0,0,1-17.34-1Z"/><rect class="cls-3" x="1380.46" y="281.32" width="198.68" height="50.86"/><rect class="cls-4" x="1380.46" y="174.02" width="121.41" height="158.16"/><rect class="cls-5" x="1380.46" y="154.15" width="101.45" height="178.03"/><rect class="cls-6" x="1380.46" y="204.99" width="172.87" height="127.19"/><rect class="cls-7" x="1380.46" y="255.83" width="63.45" height="76.35"/><rect class="cls-8" x="1278.72" y="332.18" width="101.73" height="25.43"/><path class="cls-9" d="M391,420.46a11.57,11.57,0,0,1-4.38-9.38A18,18,0,0,1,389.46,401a18.93,18.93,0,0,1,7.94-6.83A26.47,26.47,0,0,1,409,391.73q9.15,0,14,6.55l.39-.39c-.19-.25-.84-1.06-1.93-2.4l.68-4.05a14.52,14.52,0,0,0,.19-2.59c0-2.63-.84-4.58-2.5-5.83s-4.24-1.87-7.7-1.87a18.84,18.84,0,0,0-15.88,8,5.11,5.11,0,0,1-2-1.82,4.34,4.34,0,0,1-.72-2.31q0-2.79,2.84-5.3a20.75,20.75,0,0,1,7.56-4,32.44,32.44,0,0,1,9.91-1.49q7.89,0,12.42,3.65a12.2,12.2,0,0,1,4.52,10,20.64,20.64,0,0,1-.29,3.37l-4.72,26.37a7.19,7.19,0,0,1-2.79,4.86,10.77,10.77,0,0,1-6.35,1.59l.87-4.52c1.47-1.35,2.34-2.18,2.6-2.51l-.29-.38a24.18,24.18,0,0,1-17.52,7.41Q395.38,424.07,391,420.46Zm24.68-6.11a9.67,9.67,0,0,0,4-8.08,6.74,6.74,0,0,0-2.93-5.78q-2.94-2.12-8.13-2.12a14.74,14.74,0,0,0-9.87,3.23,10.42,10.42,0,0,0-3.8,8.32q0,3.85,2.5,5.68c1.67,1.22,4.2,1.83,7.61,1.83Q411.64,417.43,415.68,414.35Z"/><path class="cls-9" d="M442.77,420.27A12.34,12.34,0,0,1,438,410.12a14.83,14.83,0,0,1,.29-2.89l2.79-15.59a19.14,19.14,0,0,1,4.09-9.05,21.92,21.92,0,0,1,8.18-6.16,26.08,26.08,0,0,1,10.73-2.21q7.41,0,12.13,3.13t4.71,8.13a5.88,5.88,0,0,1-2.16,4.71,8.44,8.44,0,0,1-5.63,1.83,15.22,15.22,0,0,0,.19-1.92,7.59,7.59,0,0,0-2.79-6.16,11.41,11.41,0,0,0-7.51-2.31,15,15,0,0,0-9.14,2.84,10.78,10.78,0,0,0-4.52,7.36l-2.6,15a9.88,9.88,0,0,0-.1,1.64,7.22,7.22,0,0,0,2.84,5.92,11.76,11.76,0,0,0,7.56,2.26,14.79,14.79,0,0,0,9.14-2.89,11.42,11.42,0,0,0,4.62-7.41,7.1,7.1,0,0,1,4.33,1.21,3.7,3.7,0,0,1,1.63,3.12,10.18,10.18,0,0,1-2.69,7,17.69,17.69,0,0,1-7.55,4.72,33.69,33.69,0,0,1-11,1.68Q447.54,424.07,442.77,420.27Z"/><path class="cls-9" d="M527.23,380.67a26.27,26.27,0,0,1-3,2.59l-12.51,9.53L526.07,422a6.15,6.15,0,0,1-2.17,1.54,6.58,6.58,0,0,1-2.74.58,5.32,5.32,0,0,1-2.6-.58,4.22,4.22,0,0,1-1.73-2.11l-11.07-24-8.27,6.35L495,418q-1.05,6.06-9.33,6.06l11-62.17a7.76,7.76,0,0,1,3-5.15,11,11,0,0,1,6.64-1.78L499,395.2,526,374.31q2,2.31,2,4.05A3.37,3.37,0,0,1,527.23,380.67Z"/><path class="cls-9" d="M541.71,422.68a15.19,15.19,0,0,1-6.26-3.85,7.89,7.89,0,0,1-2.26-5.44,6.45,6.45,0,0,1,1.69-4.77,7.36,7.36,0,0,1,5-1.87c0,3.46,1,6.08,3,7.84s5,2.65,8.91,2.65c4.17,0,7.37-.69,9.62-2.07a6.56,6.56,0,0,0,3.37-5.92,4.77,4.77,0,0,0-2.5-4.24q-2.5-1.53-9.15-3.07-8.18-1.83-11.88-4.87a9.66,9.66,0,0,1-3.71-7.84A13,13,0,0,1,543,378.36q5.49-4.14,14.53-4.14a28.55,28.55,0,0,1,8.9,1.3A15.69,15.69,0,0,1,572.7,379a6.74,6.74,0,0,1,2.26,4.91,5.45,5.45,0,0,1-2,4.42,9.15,9.15,0,0,1-5.54,1.83,7.26,7.26,0,0,0-2.31-6.73c-1.86-1.61-4.58-2.41-8.18-2.41a14.45,14.45,0,0,0-8.18,2.07,6.3,6.3,0,0,0-3.08,5.44,4.09,4.09,0,0,0,2.22,3.65,28.06,28.06,0,0,0,7.89,2.6q8.66,1.83,12.9,5.3a10.65,10.65,0,0,1,4.23,8.56,13,13,0,0,1-5.82,11.41q-5.83,4-16.51,4A27.11,27.11,0,0,1,541.71,422.68Z"/><path class="cls-9" d="M650.42,403H610a4.78,4.78,0,0,1-3.19-1,3.4,3.4,0,0,1-1.19-2.75,5.92,5.92,0,0,1,.56-2.38,7.68,7.68,0,0,1,1.57-2.25L663.56,338a6.63,6.63,0,0,1,2.37-1.44,8.7,8.7,0,0,1,3-.56,4.3,4.3,0,0,1,3.19,1.19,4.14,4.14,0,0,1,1.19,3.06l-.13,1-9,51.43H678.7q-1,5.38-3.51,7.82a9.42,9.42,0,0,1-6.88,2.44h-6l-2.51,14q-1.5,8.88-13.39,8.88Zm2.5-10.26,6.38-36.29,4.76-5.13-.63-.5-41.29,41.92Z"/><path class="cls-10" d="M238.16,656.32a8,8,0,1,0,8,8A8,8,0,0,0,238.16,656.32Z"/><path class="cls-10" d="M92.07,411.92q3.08,2.52,8.71,2.52a25.22,25.22,0,0,0,3.08-.19,110.4,110.4,0,0,1-14.72-11.18c-.06.58-.15,1.18-.15,1.72A8.68,8.68,0,0,0,92.07,411.92Z"/><path class="cls-10" d="M226.13,564a8,8,0,1,0,8,8A8,8,0,0,0,226.13,564Z"/><path class="cls-9" d="M376.62,296.13a8,8,0,1,0-8-8A8,8,0,0,0,376.62,296.13Z"/><path class="cls-9" d="M304.38,378.4a8,8,0,1,0-8,8A8,8,0,0,0,304.38,378.4Z"/><path class="cls-9" d="M255.76,359.29a8.09,8.09,0,0,0-1.79.17v4h1.53c1.8,0,3.25-.59,3.25-2C258.75,360.14,257.81,359.29,255.76,359.29Z"/><path class="cls-9" d="M326.87,229.51l0,.05,0,0Z"/><path class="cls-9" d="M363.67,301.31l0,.1s0,0,.07.07Z"/><polygon class="cls-9" points="223.36 375.49 224.47 380.79 214.05 398.47 229.77 398.47 224.47 375.06 223.36 375.49"/><path class="cls-9" d="M256.1,352.88a11.19,11.19,0,0,0,.09,22.38c6.15,0,10.67-4.95,10.67-11.1S262.34,352.88,256.1,352.88Zm3.33,18.54a12.37,12.37,0,0,1-1.11-3.42c-.25-1.54-1.11-2.22-2.9-2.22h-1.54v5.64h-3.24v-14A28,28,0,0,1,256,357a8.67,8.67,0,0,1,4.86,1,3.89,3.89,0,0,1,1.37,3.07c0,1.54-1.19,2.74-2.9,3.25v.17c1.36.51,2.13,1.54,2.56,3.42a10.88,10.88,0,0,0,1,3.5Z"/><path class="cls-9" d="M446.61,152.09a18.56,18.56,0,1,1-7.73-22.5A363.15,363.15,0,0,0,413.24,77c-14.95,30.54-88.86,46-130.24,71,0,0-110.3,48-51.1,198.79-33.65-69.17-64.18-93.44-104.69-105.9s-96-26.21-96-26.21C35.73,269,38.63,346.3,79.33,393.16l3.77-21.6a8.89,8.89,0,0,1,4-6.28q3.33-2.17,9-2.18l-6.83,38.79c-.07.41-.06.78-.11,1.18a110.4,110.4,0,0,0,14.72,11.18,15.36,15.36,0,0,0,7.69-3.05,14.81,14.81,0,0,0,5.21-9.31l5.29-30.33a8.94,8.94,0,0,1,4-6.28q3.33-2.17,9-2.18l-6.84,38.79a25.85,25.85,0,0,1-9.65,16.53,26.53,26.53,0,0,1-3.43,2.18c17.62,8.54,39.18,13.48,65.68,13.48,61,0,68.78,19.14,56.14,66.11l-14.38,53.4a18.51,18.51,0,1,0,16.21,5.16l16.08-59.22h.1l29.23-106.94a18.55,18.55,0,1,1,15.87,3.67l-28.31,105.1L233.46,646.11h0a18.53,18.53,0,1,0,16.25,4h0l40.95-152c6.43-23.82,21.37-55.68,41.92-81.45L350.73,349H294.55l4.86-17.73,27.44-101.7a18.48,18.48,0,1,1,17,4l0-.31L317.47,331H355.6l8-29.54a18.28,18.28,0,0,1-6-13.57,18.54,18.54,0,1,1,22.92,18.06h0l-6.91,25.67-4.87,18.06-11.24,41.74a107.18,107.18,0,0,1,22-14C416.79,360.08,483.94,276.71,446.61,152.09Zm-220.48,428a8,8,0,1,1,8-8A8,8,0,0,1,226.13,580.07ZM188,384.72a16.3,16.3,0,0,1-9.27,2.39,18.6,18.6,0,0,0,1.11-5.72,7.07,7.07,0,0,0-3.5-6.16c-2.33-1.53-5.44-2.3-9.31-2.3a17.35,17.35,0,0,0-11,3.54,14.73,14.73,0,0,0-5.55,9.36l-2.74,15.72a12.62,12.62,0,0,0-.25,2.47,9.54,9.54,0,0,0,3.42,7.73q3.4,2.87,9.31,2.87A19.06,19.06,0,0,0,171,411.67a11.48,11.48,0,0,0,5.3-7.65l.51-2.65h-7.43a5.41,5.41,0,0,1-4.32-1.83,7.3,7.3,0,0,1-1.58-4.91,11.79,11.79,0,0,1,.17-2.31h20.76a4.59,4.59,0,0,1,3.25,1.11,3.91,3.91,0,0,1,1.19,3,7.35,7.35,0,0,1-.08,1.2l-1.2,6.66a21.61,21.61,0,0,1-4.91,10.55,25.66,25.66,0,0,1-10,7.09,36,36,0,0,1-13.75,2.52,29.43,29.43,0,0,1-12.09-2.31,18.13,18.13,0,0,1-8-6.58,17.52,17.52,0,0,1-2.82-9.9,23.62,23.62,0,0,1,.35-4.1l2.82-15.72a26.34,26.34,0,0,1,5.25-11.92,26.83,26.83,0,0,1,10.34-8,37,37,0,0,1,26-.89,18.4,18.4,0,0,1,8,5.42,12.38,12.38,0,0,1,2.86,8A7.27,7.27,0,0,1,188,384.72Zm54.5,36.64a10.1,10.1,0,0,1-6.7,3.08l-4.19-16.23H208.93l-10.08,16.23a8.82,8.82,0,0,1-5.17-2.22,6,6,0,0,1-1.84-4.44,12.23,12.23,0,0,1,2.22-6.41l27.6-44.51a8.12,8.12,0,0,1,2.69-2.86,6.56,6.56,0,0,1,3.46-.9,4.66,4.66,0,0,1,4.95,3.76l11.79,44.51a12.37,12.37,0,0,1,.43,3.42A9.34,9.34,0,0,1,242.54,421.36Zm13.56-43.11a14.09,14.09,0,1,1,0-28.18,14.09,14.09,0,1,1,0,28.18ZM238.16,672.37a8,8,0,1,1,8-8A8,8,0,0,1,238.16,672.37Z"/><path class="cls-9" d="M347.53,215.87a8,8,0,1,0-8,8A8,8,0,0,0,347.53,215.87Z"/></g></g></svg>