<?xml version="1.0" encoding="UTF-8" standalone="no"?>
<svg
   xmlns:dc="http://purl.org/dc/elements/1.1/"
   xmlns:cc="http://creativecommons.org/ns#"
   xmlns:rdf="http://www.w3.org/1999/02/22-rdf-syntax-ns#"
   xmlns:svg="http://www.w3.org/2000/svg"
   xmlns="http://www.w3.org/2000/svg"
   viewBox="0 0 336 336"
   height="336"
   width="336"
   xml:space="preserve"
   id="svg2"
   version="1.1"><metadata
     id="metadata8"><rdf:RDF><cc:Work
         rdf:about=""><dc:format>image/svg+xml</dc:format><dc:type
           rdf:resource="http://purl.org/dc/dcmitype/StillImage" /></cc:Work></rdf:RDF></metadata><defs
     id="defs6" /><g
     transform="matrix(1.3333333,0,0,-1.3333333,0,336)"
     id="g10"><g
       transform="scale(0.1)"
       id="g12"><path
         id="path14"
         style="fill:#231f20;fill-opacity:1;fill-rule:evenodd;stroke:none"
         d="M 1260,2293.75 C 689.07,2293.75 226.25,1830.93 226.25,1260 226.25,689.07 689.07,226.25 1260,226.25 c 570.92,0 1033.75,462.82 1033.75,1033.75 0,570.93 -462.83,1033.75 -1033.75,1033.75 z M 2520,1260 C 2520,564.121 1955.88,0 1260,0 564.121,0 0,564.121 0,1260 c 0,695.88 564.121,1260 1260,1260 695.88,0 1260,-564.12 1260,-1260" /><path
         id="path16"
         style="fill:#231f20;fill-opacity:1;fill-rule:evenodd;stroke:none"
         d="m 1896.93,572.43 h -492.49 v 987.86 h 227.04 V 787.648 h 265.45 V 572.43" /><path
         id="path18"
         style="fill:#231f20;fill-opacity:1;fill-rule:evenodd;stroke:none"
         d="m 1250.23,1208.78 c 0,-180.14 -130.67,-274.339 -302.503,-274.339 -170.122,0 -304.985,91.709 -304.985,274.339 v 723.85 h 226.25 v -732.82 c 0,-51.69 34.465,-86.09 76.582,-86.09 53.723,0 77.616,43.18 77.616,86.09 v 732.82 h 227.04 v -723.85" /></g></g></svg>